<?xml version="1.0" standalone="no"?>
<!DOCTYPE svg PUBLIC "-//W3C//DTD SVG 1.1//EN" "http://www.w3.org/Graphics/SVG/1.1/DTD/svg11.dtd" >
<svg xmlns="http://www.w3.org/2000/svg" xmlns:xlink="http://www.w3.org/1999/xlink" version="1.1">
<metadata>
Created by FontForge 20161013 at Sun Jan 22 20:32:59 2012
 By ,,,
Copyright (c) 2011, Tipo (http://www.tipo.net.ar), with Reserved Font Name "Port Lligat Slab"
</metadata>
<defs>
<font id="PortLligatSlab-Regular" horiz-adv-x="601" >
  <font-face 
    font-family="Port Lligat Slab"
    font-weight="400"
    font-stretch="normal"
    units-per-em="1000"
    panose-1="2 0 0 0 0 0 0 0 0 0"
    ascent="800"
    descent="-200"
    x-height="467"
    cap-height="643"
    bbox="-117 -211 1183 860"
    underline-thickness="50"
    underline-position="-150"
    unicode-range="U+0020-FB02"
  />
<missing-glyph horiz-adv-x="230" 
 />
    <glyph glyph-name=".notdef" horiz-adv-x="230" 
 />
    <glyph glyph-name=".null" horiz-adv-x="0" 
 />
    <glyph glyph-name="nonmarkingreturn" horiz-adv-x="333" 
 />
    <glyph glyph-name="space" unicode=" " horiz-adv-x="230" 
 />
    <glyph glyph-name="exclam" unicode="!" horiz-adv-x="270" 
d="M121 375q0 184 -26 288q30 11 58 11t52 -6q-20 -189 -20 -423q0 -33 2 -65q-19 -6 -34 -6t-34 6q2 106 2 195zM220 55q0 -30 -18 -50t-55 -20q-57 0 -57 58q0 72 73 72q57 0 57 -60z" />
    <glyph glyph-name="quotedbl" unicode="&#x22;" horiz-adv-x="351" 
d="M60 677q23 5 52.5 5t38.5 -3q-11 -121 -11 -232q-18 -6 -35.5 -6t-29.5 3q0 131 -15 233zM200 677q23 5 52.5 5t38.5 -3q-11 -121 -11 -232q-18 -6 -35.5 -6t-29.5 3q0 131 -15 233z" />
    <glyph glyph-name="numbersign" unicode="#" horiz-adv-x="763" 
d="M475 -46q-39 0 -68 19q24 90 44 180q-42 1 -93.5 1t-111.5 -2q-9 -55 -29 -196q-18 -2 -22 -2q-39 0 -68 19q18 68 43 176q-82 -3 -115 -9q-5 15 -5 39t11 49q50 -5 125 -7q24 120 38 197q-85 -3 -117 -9q-5 15 -5 39t11 49q51 -5 124 -7q16 97 30 197q8 1 34 1t55 -18
q-23 -85 -45 -182h136q40 0 70 1q17 101 30 198q8 1 34 1t55 -18q-17 -61 -44 -178q97 6 116 10q5 -15 5 -39t-11 -49q-69 5 -126 6q-23 -113 -38 -197q99 6 118 10q5 -15 5 -39t-11 -49q-67 5 -124 6q-9 -55 -29 -195q-18 -2 -22 -2zM395 219q41 0 71 1q22 103 39 202
q-43 1 -95 1t-114 -2q-20 -94 -39 -202h138z" />
    <glyph glyph-name="dollar" unicode="$" horiz-adv-x="550" 
d="M167 176q17 -19 17 -46.5t-9 -44.5q44 -36 101.5 -36t86.5 26.5t29 72.5t-32 79t-77.5 55t-90.5 46.5t-77 65.5t-32 103t40.5 104t112.5 51q-2 57 -4 84q22 13 62 13q10 0 29 -3q-4 -34 -10 -94q62 -10 105.5 -46.5t43.5 -96t-52 -59.5q-31 0 -48 19t-17 49t12 46
q-35 32 -86 32t-76.5 -26t-25.5 -65t23 -66.5t57 -45t74 -40t74 -44.5t57 -59.5t23 -85.5q0 -77 -51.5 -126.5t-134.5 -52.5q0 -46 5 -64q-27 -13 -51.5 -13t-39.5 3q6 51 8 82q-63 13 -104.5 49.5t-41.5 94.5t52 58q31 0 48 -19z" />
    <glyph glyph-name="percent" unicode="%" horiz-adv-x="889" 
d="M335 -46q-34 0 -57 19q124 292 254 713q16 2 26 2q28 0 53 -18q-121 -279 -255 -714q-16 -2 -21 -2zM839 193q0 -202 -147 -202t-147 202t147 202t147 -202zM615 193q0 -149 77.5 -149t77.5 149t-77.5 149t-77.5 -149zM344 451q0 -202 -147 -202t-147 202t147 202
t147 -202zM120 451q0 -149 77.5 -149t77.5 149t-77.5 149t-77.5 -149z" />
    <glyph glyph-name="ampersand" unicode="&#x26;" horiz-adv-x="594" 
d="M392 284q-2 14 -2 28t3 28q23 -1 87 -1t89 1q3 -15 3 -30.5t-2 -25.5l-55 -3q-18 -85 -55 -146q55 -61 108 -130q-34 -17 -69 -17t-42 1q-22 29 -36.5 48.5t-18.5 24.5q-83 -77 -189 -77q-74 0 -120 47.5t-46 123.5q0 102 102 182q-56 75 -56 163q0 70 47.5 112t119 42
t110 -37.5t38.5 -92t-32.5 -95.5t-110.5 -93q21 -26 144 -150q20 45 27 94zM235 57q63 0 123 57q-31 37 -164 171q-65 -53 -65 -107t29.5 -87.5t76.5 -33.5zM172 513q0 -54 51 -125q58 37 82 65t24 62t-23 59t-57.5 25t-55.5 -24t-21 -62z" />
    <glyph glyph-name="quotesingle" unicode="'" horiz-adv-x="211" 
d="M60 677q23 5 52.5 5t38.5 -3q-11 -121 -11 -232q-18 -6 -35.5 -6t-29.5 3q0 131 -15 233z" />
    <glyph glyph-name="parenleft" unicode="(" horiz-adv-x="309" 
d="M147 329q0 -215 132 -389q-44 -14 -65 -14t-28 1q-121 180 -121 402.5t121 402.5q7 1 28 1t65 -14q-132 -175 -132 -390z" />
    <glyph glyph-name="parenright" unicode=")" horiz-adv-x="309" 
d="M30 719q44 14 65 14t28 -1q121 -180 121 -402.5t-121 -402.5q-7 -1 -28 -1t-65 14q132 174 132 389t-132 390z" />
    <glyph glyph-name="asterisk" unicode="*" horiz-adv-x="398" 
d="M158 670q21 5 45.5 5t33.5 -5q-7 -55 -9 -115q55 20 107 46q4 -7 13 -28.5t10 -47.5q-58 -7 -117 -26q39 -51 80 -89q-43 -43 -64 -47q-36 69 -61 102q-28 -39 -58 -100q-28 12 -45 24.5t-20 19.5q46 48 77 91q-52 17 -112 25q1 26 10.5 49t12.5 27q54 -28 110 -47
q-1 48 -13 116z" />
    <glyph glyph-name="plus" unicode="+" 
d="M259 534q22 7 48 7t40 -3q-5 -17 -9.5 -80.5t-4.5 -97.5q34 0 97.5 4.5t80.5 9.5q3 -14 3 -40t-7 -48q-76 7 -174 9q0 -108 9 -174q-22 -7 -48 -7t-40 3q11 44 14 178q-134 -3 -178 -14q-3 14 -3 40t7 48q66 -9 174 -9q-2 98 -9 174z" />
    <glyph glyph-name="comma" unicode="," horiz-adv-x="261" 
d="M75 -152q-5 15 -5 24.5t3 24.5q67 0 67 69q0 25 -26 28q-38 3 -38 49q0 35 16.5 53.5t59.5 18.5q59 0 59 -80t-32 -133.5t-104 -53.5z" />
    <glyph glyph-name="hyphen" unicode="-" horiz-adv-x="354" 
d="M66 196q-6 14 -6 31t6 41q189 13 222 21q6 -14 6 -31t-6 -41q-189 -13 -222 -21z" />
    <glyph glyph-name="period" unicode="." horiz-adv-x="270" 
d="M220 55q0 -30 -18 -50t-55 -20q-57 0 -57 58q0 72 73 72q57 0 57 -60z" />
    <glyph glyph-name="slash" unicode="/" horiz-adv-x="566" 
d="M162 -46q-39 0 -66 19q150 302 297 713q18 2 40.5 2t51.5 -18q-148 -292 -298 -714q-18 -2 -25 -2z" />
    <glyph glyph-name="zero" unicode="0" horiz-adv-x="587" 
d="M527 320q0 -335 -233.5 -335t-233.5 335t233.5 335t233.5 -335zM145 320q0 -270 148.5 -270t148.5 270t-148.5 270t-148.5 -270z" />
    <glyph glyph-name="one" unicode="1" horiz-adv-x="375" 
d="M207 648q9 1 22 1t24 -1t19 -1q-14 -108 -14 -298.5t8 -285.5l97 -8q2 -16 2 -27.5t-3 -28.5q-59 1 -141 1t-140 -1q-3 15 -3 26.5t2 29.5l95 8q8 107 8 265.5t-6 224.5q-112 -74 -131 -93q-39 43 -46 80q64 26 207 108z" />
    <glyph glyph-name="two" unicode="2" horiz-adv-x="538" 
d="M129.5 622q49.5 33 132 33t140.5 -45.5t58 -129.5q0 -49 -33.5 -106.5t-75.5 -101.5q-146 -153 -182 -203q33 -1 96 -1t149 7l3 74q17 3 30.5 3t25.5 -1q3 -82 9 -152l-5 -5q-77 9 -166.5 9t-165 -5t-96.5 -9q-4 12 -4 35q45 81 158 197q42 43 81 87q88 96 88 169
q0 44 -27 81.5t-89 37.5t-100 -41q12 -15 12 -41.5t-14.5 -45t-44.5 -18.5q-47 0 -47 54q0 20 3 29q15 56 64.5 89z" />
    <glyph glyph-name="three" unicode="3" horiz-adv-x="529" 
d="M240 -15q-76 0 -138 37.5t-62 107.5q0 60 52 60q33 0 49 -20.5t16 -49t-12 -45.5q31 -26 98 -26t108 33.5t41 84t-21.5 83.5t-60.5 46q-55 -4 -83.5 -4t-51.5 3q-5 18 -5 35t10 35q23 -7 75.5 -6.5t85 33.5t32.5 84.5t-35 85.5t-90.5 34t-87.5 -30q14 -17 14 -47.5
t-17 -49.5t-48 -19q-52 0 -52 60q0 24 6 39q41 106 186 106q96 0 151.5 -47t55.5 -128q0 -111 -90 -148q113 -43 113 -159q0 -91 -62 -139.5t-177 -48.5z" />
    <glyph glyph-name="four" unicode="4" horiz-adv-x="511" 
d="M254 639q30 10 62 10t84 -4q-14 -111 -14 -240t1 -161q50 4 60 7q4 -16 4 -40t-8 -48q-36 4 -54 5q2 -66 6 -110l36 -3q2 -16 2 -27.5t-3 -28.5q-35 1 -81 1t-80 -1q-3 15 -3 26.5t2 29.5l35 3q4 53 6 113q-31 1 -142.5 1t-163.5 -6q-3 9 -3 36q15 23 49.5 78.5
t48.5 77.5t41 66.5t43 72.5q42 77 72 142zM110 238q37 -1 86 -1t115 2v68q0 197 -8 272q-73 -102 -193 -341z" />
    <glyph glyph-name="five" unicode="5" horiz-adv-x="531" 
d="M170 386q50 9 96.5 9t93 -18.5t72.5 -49.5q49 -60 49 -145t-58.5 -141t-177.5 -56q-72 0 -132 37.5t-60 107.5q0 60 52 60q33 0 49 -20.5t16 -49t-12 -45.5q31 -26 95.5 -26t102.5 40t38 96.5t-33.5 101.5t-113 45t-123.5 -30q-28 0 -44 6q13 37 20 129.5t7 143t-1 65.5
q62 -6 172.5 -6t167.5 8l5 -5q-7 -77 -9 -142q-12 -1 -26 -1t-30 3l-3 68q-60 3 -101 2.5t-94 -0.5q-16 -101 -18 -187z" />
    <glyph glyph-name="six" unicode="6" horiz-adv-x="549" 
d="M376 470.5q-16 20.5 -16 50t14 46.5q-31 29 -90 29t-97.5 -72t-38.5 -197q54 71 159 71q79 0 135.5 -54t56.5 -146.5t-62.5 -152.5t-156.5 -60q-120 0 -167.5 76.5t-47.5 237.5q0 186 59 275q23 34 65.5 57.5t108 23.5t122.5 -38t57 -102.5t-52 -64.5q-33 0 -49 20.5z
M372.5 86q41.5 36 41.5 106.5t-34 107.5t-89.5 37t-97 -39.5t-41.5 -108.5t35 -104t89.5 -35t96 36z" />
    <glyph glyph-name="seven" unicode="7" horiz-adv-x="446" 
d="M304 573q-25 1 -81 1t-140 -7l-3 -64q-16 -3 -30 -3t-26 1q-2 65 -9 142l5 5q36 -9 201 -9h29q37 0 98 5t79 9q4 -18 4 -35q-80 -147 -148.5 -324t-83.5 -292q-29 -10 -53.5 -10t-48.5 4q59 196 207 577z" />
    <glyph glyph-name="eight" unicode="8" horiz-adv-x="565" 
d="M187 333q-109 63 -109 158q0 71 50.5 117.5t155.5 46.5q205 0 205 -168q0 -83 -101 -167q117 -62 117 -160q0 -84 -67 -129.5t-156 -45.5q-110 0 -172 51q-50 41 -50 121t127 176zM282 59q64 0 99.5 33t35.5 71q0 31 -16 47.5t-25 24.5t-30 19l-32 16q-10 6 -36.5 18
t-36.5 17q-93 -76 -93 -150q0 -96 134 -96zM164 500q0 -69 90 -116q45 -24 75 -36q41 27 59 66t18 73q0 109 -121 109q-49 0 -85 -25t-36 -71z" />
    <glyph glyph-name="nine" unicode="9" horiz-adv-x="549" 
d="M163 169.5q16 -20.5 16 -50t-13 -45.5q32 -29 97 -29t101.5 70t36.5 198q-54 -71 -159 -71q-79 0 -135.5 54t-56.5 146.5t62.5 152.5t156.5 60q120 0 167.5 -76.5t47.5 -237.5q0 -190 -60 -275q-24 -34 -67 -57.5t-108 -23.5t-113 29t-68 77q-6 13 -6 39q0 60 52 60
q33 0 49 -20.5zM355.5 340q41.5 37 41.5 108.5t-34 109.5t-89.5 38t-97 -40.5t-41.5 -110.5t35.5 -106t89.5 -36t95.5 37z" />
    <glyph glyph-name="colon" unicode=":" horiz-adv-x="264" 
d="M217 55q0 -30 -18 -50t-55 -20q-57 0 -57 58q0 72 73 72q57 0 57 -60zM217 418q0 -30 -18 -50t-55 -20q-57 0 -57 58q0 72 73 72q57 0 57 -60z" />
    <glyph glyph-name="semicolon" unicode=";" horiz-adv-x="271" 
d="M217 418q0 -30 -18 -50t-55 -20q-57 0 -57 58q0 72 73 72q57 0 57 -60zM86 -152q-5 15 -5 24.5t3 24.5q67 0 67 69q0 25 -26 28q-38 3 -38 49q0 35 16.5 53.5t59.5 18.5q59 0 59 -80t-32 -133.5t-104 -53.5z" />
    <glyph glyph-name="less" unicode="&#x3c;" 
d="M74 287q-7 14 -7 39.5t7 40.5q124 47 294 151q58 35 72 48q9 -11 21.5 -35.5t16.5 -44.5q-76 -30 -187.5 -88t-134.5 -71q47 -26 142 -75.5t180 -83.5q-4 -20 -16.5 -44.5t-21.5 -35.5q-14 13 -72 48q-167 102 -294 151z" />
    <glyph glyph-name="equal" unicode="=" 
d="M507 386q-92 9 -178.5 9t-153.5 -4.5t-85 -9.5q-3 13 -3 39.5t7 48.5q69 -9 167 -9q200 0 250 14q3 -13 3 -39.5t-7 -48.5zM507 186q-92 9 -178.5 9t-153.5 -4.5t-85 -9.5q-3 14 -3 40t7 48q69 -9 167 -9q200 0 250 14q3 -13 3 -39.5t-7 -48.5z" />
    <glyph glyph-name="greater" unicode="&#x3e;" 
d="M471 367q7 -15 7 -40.5t-7 -39.5q-127 -49 -295 -151q-57 -35 -71 -48q-9 11 -21.5 35.5t-16.5 44.5q85 34 180 83.5t142 75.5q-46 26 -110 58q-127 67 -212 101q4 20 16.5 44.5t21.5 35.5q14 -13 71 -48q168 -102 295 -151z" />
    <glyph glyph-name="question" unicode="?" horiz-adv-x="459" 
d="M235 617q-36 0 -58 -19q9 -15 9 -39t-15 -42.5t-44 -18.5q-47 0 -47 56.5t48 87.5t110.5 31t114.5 -38t52 -104q0 -63 -58 -114q-24 -21 -49 -41q-58 -46 -58 -90.5t31 -78.5q-25 -33 -61 -37q-38 70 -38 119.5t54 106.5q8 9 31.5 32.5t33.5 35.5q31 37 31 71t-25.5 58
t-61.5 24zM298 55q0 -30 -18 -50t-55 -20q-57 0 -57 58q0 72 73 72q57 0 57 -60z" />
    <glyph glyph-name="at" unicode="@" horiz-adv-x="858" 
d="M541 -34q4 -8 4 -32t-8 -46q-72 -25 -178 -25q-148 0 -223.5 77.5t-75.5 229.5q0 223 108.5 344t308.5 121q156 0 238.5 -80.5t82.5 -232.5q0 -118 -70 -205t-166 -87q-45 0 -59 67q-75 -67 -145 -67q-52 0 -79.5 41.5t-27.5 119.5q0 127 53 204.5t140.5 77.5t170.5 -23
q-43 -182 -43 -308q0 -51 29 -51q44 0 81.5 72t37.5 156q0 131 -60.5 193.5t-188.5 62.5q-160 0 -244.5 -103.5t-84.5 -298.5q0 -246 206 -246q79 0 193 39zM439 423q-49 0 -80 -63t-31 -162t64 -99q24 0 54.5 15t54.5 39q4 30 29 249q-42 21 -91 21z" />
    <glyph glyph-name="A" unicode="A" horiz-adv-x="561" 
d="M151 613q0 19 1 25q88 11 131 11t73 -10q24 -188 167 -581l37 -3q2 -22 2 -30.5t-3 -25.5q-28 1 -87 1t-82 -1q-3 15 -3 28.5t2 27.5l35 3q-5 24 -16 69.5t-12 50.5q-57 3 -123.5 3t-124.5 -4l-28 -119l38 -3q2 -22 2 -30.5t-3 -25.5q-24 1 -78.5 1t-76.5 -1
q-3 15 -3 28.5t2 27.5l35 3q120 329 158 521l-40 3q-3 12 -3 31zM166 247q34 -1 102 -1t110 3q-47 178 -99 329h-6q-59 -143 -107 -331z" />
    <glyph glyph-name="B" unicode="B" horiz-adv-x="575" 
d="M108 61q9 102 9 270.5t-10 247.5l-39 3q-3 12 -3 31t1 25q64 1 114 9t106 8q101 0 153.5 -46.5t52.5 -140.5t-64 -142q107 -43 107 -153q0 -93 -58 -140.5t-171 -47.5q-63 0 -117 8q-95 7 -123 9q-1 6 -1 24t3 32zM250 372q22 -15 64.5 -15t66.5 28.5t24 86t-32 92
t-91 34.5q-37 0 -82 -18q-8 -83 -8 -242t8 -261q59 -23 107 -23q141 0 141 119q0 100 -93 122q-30 -5 -58.5 -5t-67.5 15q0 46 21 67z" />
    <glyph glyph-name="C" unicode="C" horiz-adv-x="536" 
d="M395 469q-17 19 -17 49.5t13 47.5q-32 30 -88 30q-82 0 -124 -68.5t-42 -201.5q0 -267 166 -267q40 0 81.5 19.5t70.5 51.5q31 -25 40 -79q-89 -66 -192 -66q-131 0 -189.5 81t-58.5 252q0 337 248 337q75 0 133.5 -39.5t58.5 -102.5t-52 -63q-31 0 -48 19z" />
    <glyph glyph-name="D" unicode="D" horiz-adv-x="607" 
d="M299 -15q-63 0 -117.5 7t-115.5 10q-1 6 -1 24t3 32l40 3q9 102 9 270.5t-10 247.5l-39 3q-3 12 -3 31t1 25q66 1 119 9t114 8q127 0 195 -85.5t68 -244.5q0 -340 -263 -340zM299 56q86 0 131.5 69t45.5 199.5t-46 201t-132 70.5q-50 0 -99 -19q-7 -85 -7 -247t8 -253
q47 -21 99 -21z" />
    <glyph glyph-name="E" unicode="E" horiz-adv-x="519" 
d="M369 406q22 2 30 2t26 -3q-1 -31 -1 -80t1 -64q-15 -3 -29 -3t-27 2l-3 35q-54 2 -89 2t-89 -2q0 -131 7 -219q35 -3 99.5 -3t101.5 5l3 68q17 3 31.5 3t24.5 -1q1 -78 9 -148l-5 -5q-49 5 -214.5 5t-174.5 -1q-3 15 -3 28.5t2 27.5l35 3q9 155 9 280.5t-12 242.5l-34 3
q-2 13 -2 27t3 29q25 -1 183 -1t203 9l5 -5q-8 -88 -9 -142q-10 -1 -25 -1t-31 3l-3 68q-51 3 -106 3t-91 -3q-6 -63 -6 -206q16 -1 65 -1t113 4z" />
    <glyph glyph-name="F" unicode="F" horiz-adv-x="479" 
d="M359 396q22 2 30 2t26 -3q-1 -30 -1 -76t1 -68q-15 -3 -29 -3t-27 2l-3 35q-54 2 -83 2t-85 -2q2 -152 9 -227l55 -4l2 -24q0 -16 -3 -31q-26 1 -93.5 1t-88.5 -1q-3 15 -3 28.5t2 27.5l37 3q8 98 8 252t-12 271l-34 3q-2 13 -2 27t3 29q25 -1 178 -1t198 9l5 -5
q-8 -88 -9 -142q-10 -1 -25 -1t-31 3l-3 68q-51 3 -99.5 3t-87.5 -3q-6 -66 -6 -217h49q55 0 119 4z" />
    <glyph glyph-name="G" unicode="G" horiz-adv-x="570" 
d="M505 51q-89 -66 -210 -66t-180.5 82t-59.5 251q0 337 251 337q70 0 119 -27.5t70 -78.5q6 -18 6 -39q0 -60 -52 -60q-31 0 -48 19t-17 49t12 47q-32 31 -90 31q-83 0 -126 -68.5t-43 -201.5q0 -267 166 -267q81 0 137 46q-1 80 -7 137q-120 -4 -161 -11q-5 27 -5 52t1 34
q51 -8 128 -8t119 3q-10 -106 -10 -261z" />
    <glyph glyph-name="H" unicode="H" horiz-adv-x="647" 
d="M230 55q2 -16 2 -27.5t-3 -28.5q-35 1 -81 1t-80 -1q-3 15 -3 26.5t2 29.5l35 3q8 108 8 275.5t-9 250.5l-34 3q-2 16 -2 27.5t3 28.5q35 -1 81 -1t80 1q3 -15 3 -26.5t-2 -29.5l-38 -3q-7 -88 -7 -225q54 -6 130 -6t145 8q-2 159 -9 223l-34 3q-2 16 -2 27.5t3 28.5
q35 -1 81 -1t80 1q3 -15 3 -26.5t-2 -29.5l-38 -3q-7 -81 -7 -251t9 -275l36 -3q2 -16 2 -27.5t-3 -28.5q-35 1 -81 1t-80 -1q-3 15 -3 26.5t2 29.5l35 3q6 87 8 223q-64 7 -145 7t-130 -7q2 -142 9 -223z" />
    <glyph glyph-name="I" unicode="I" horiz-adv-x="317" 
d="M202 584q-7 -81 -7 -251t9 -275l36 -3q2 -16 2 -27.5t-3 -28.5q-35 1 -81 1t-80 -1q-3 15 -3 26.5t2 29.5l35 3q8 108 8 275.5t-9 250.5l-34 3q-2 16 -2 27.5t3 28.5q35 -1 81 -1t80 1q3 -15 3 -26.5t-2 -29.5z" />
    <glyph glyph-name="J" unicode="J" horiz-adv-x="281" 
d="M61 587q-2 22 -2 30t3 26q27 -1 81.5 -1t79.5 1q3 -15 3 -22.5t-2 -33.5l-35 -3q-7 -95 -7 -329v-153q0 -161 -34 -221.5t-125 -60.5q-35 0 -74 13t-66 33q4 24 14 44t18 28l8 7q38 -51 93 -51t73 47.5t18 179.5v169q0 206 -9 294z" />
    <glyph glyph-name="K" unicode="K" horiz-adv-x="532" 
d="M345 586q-2 22 -2 30t3 26q24 -1 83.5 -1t81.5 1q3 -15 3 -22.5t-2 -33.5l-37 -3l-195 -231q101 -154 134 -201t68 -88l47 -3q2 -16 2 -30t-3 -28l-119 -5q-7 33 -125 207q-50 74 -55 83l-43 -55q2 -102 8 -174l36 -3q2 -22 2 -30.5t-3 -25.5q-28 1 -82 1t-79 -1
q-3 15 -3 28.5t2 27.5l35 3q8 110 8 277.5t-9 248.5l-34 3q-2 22 -2 30t3 26q27 -1 81.5 -1t79.5 1q3 -15 3 -22.5t-2 -33.5l-38 -3q-7 -88 -7 -265q159 203 197 264z" />
    <glyph glyph-name="L" unicode="L" horiz-adv-x="443" 
d="M102 58q9 138 9 291t-9 235l-34 3q-2 16 -2 27.5t3 28.5q35 -1 81 -1t80 1q3 -15 3 -26.5t-2 -29.5l-38 -3q-7 -94 -7 -258.5t7 -249.5q31 -3 90.5 -3t90.5 5l3 68q17 3 30.5 3t25.5 -1q3 -76 9 -148l-5 -5q-47 5 -191 5t-178 -1q-3 15 -3 26.5t2 29.5z" />
    <glyph glyph-name="M" unicode="M" horiz-adv-x="790" 
d="M716 613q0 -17 -3 -31l-38 -3q-1 -28 -1 -83q0 -245 22 -438l37 -3q2 -16 2 -27.5t-3 -28.5q-35 1 -81 1t-80 -1q-3 15 -3 26.5t2 29.5l33 3q2 72 2 164.5t-9 257.5q-10 -21 -50 -102q-89 -177 -122 -261q-20 -8 -42.5 -8t-30.5 1q-35 84 -99.5 203.5t-76.5 141.5
q-8 -142 -8 -240.5t2 -156.5l37 -3q2 -16 2 -27.5t-3 -28.5q-32 1 -74 1t-73 -1q-3 15 -3 26.5t2 29.5l35 3q21 182 21 431q0 48 -3 90l-37 3q-3 14 -3 31t1 25q82 2 124 5q17 -92 202 -433q153 299 179 433q37 -3 139 -5q1 -8 1 -25z" />
    <glyph glyph-name="N" unicode="N" horiz-adv-x="650" 
d="M483 145q3 84 3 220t-9 219l-37 3q-2 16 -2 27.5t3 28.5q32 -1 73.5 -1t72.5 1q3 -15 3 -26.5t-2 -29.5l-35 -3q-7 -81 -7 -304.5t17 -277.5q-30 -10 -43.5 -10t-47.5 2q-7 31 -59 112.5t-129.5 194.5t-111.5 169q-1 -43 -1 -175t9 -237l37 -3q2 -16 2 -27.5t-3 -28.5
q-32 1 -74 1t-73 -1q-3 15 -3 26.5t2 29.5l35 3q8 108 8 273.5t-9 247.5l-39 3q-3 14 -3 31t1 25q85 2 126 5q19 -72 108 -216t188 -282z" />
    <glyph glyph-name="O" unicode="O" 
d="M55 327q0 328 245.5 328t245.5 -328q0 -60 -4.5 -105t-20 -92t-41.5 -77t-71.5 -49t-108 -19t-108 19t-71.5 49t-41.5 77t-20 92t-4.5 105zM216 81q34 -22 84.5 -22t85 22t51.5 63q30 71 30 182q0 270 -166.5 270t-166.5 -270q0 -193 82 -245z" />
    <glyph glyph-name="P" unicode="P" horiz-adv-x="531" 
d="M249 331q29 -29 69.5 -29t65.5 25q40 41 40 122q0 149 -132 149q-42 0 -94 -22q-7 -79 -7 -246t9 -272l57 -4q2 -16 2 -29t-3 -26q-36 1 -93.5 1t-88.5 -1q-3 15 -3 26.5t2 29.5l35 3q8 107 8 273.5t-10 247.5l-38 3q-3 14 -3 31t1 25q42 2 115 9q51 8 112 8
q118 0 168 -53.5t50 -150t-50.5 -156.5t-153.5 -60q-40 0 -79 15q0 27 7 50t14 31z" />
    <glyph glyph-name="Q" unicode="Q" 
d="M468 -170q-131 0 -198 156q-152 11 -194 152q-21 72 -21 189q0 328 245.5 328t245.5 -328q0 -69 -7 -120t-27 -101q-39 -99 -161 -117q38 -89 121 -89q35 0 72 20.5t63 55.5q27 -27 35 -85q-75 -61 -174 -61zM216 81q34 -22 84.5 -22t85 22t51.5 63q30 71 30 182
q0 270 -166.5 270t-166.5 -270q0 -193 82 -245z" />
    <glyph glyph-name="R" unicode="R" horiz-adv-x="564" 
d="M249 349q29 -27 73.5 -27t73 37.5t28.5 99.5q0 139 -132 139q-45 0 -94 -20q-7 -87 -7 -247t9 -273l37 -3q2 -22 2 -30.5t-3 -25.5q-29 1 -85 1t-77 -1q-3 15 -3 28.5t2 27.5l35 3q8 110 8 276t-10 245l-38 3q-3 12 -3 31t1 25q67 2 118 9.5t109 7.5q218 0 218 -196
q0 -79 -39 -130t-109 -64q99 -157 137 -202l47 -3q2 -16 2 -29.5t-3 -28.5q-91 -3 -127 -5l-4 11q-17 42 -41.5 87.5t-102.5 167.5q-21 1 -43 11q0 20 6.5 43.5t14.5 31.5z" />
    <glyph glyph-name="S" unicode="S" horiz-adv-x="480" 
d="M132 176q17 -19 17 -46.5t-9 -44.5q44 -36 101.5 -36t86.5 26.5t29 72.5t-32 79t-77.5 55t-90.5 46.5t-77 65.5t-32 97q0 77 51 120.5t131 43.5t138.5 -38t58.5 -102.5t-52 -64.5q-31 0 -48 19t-17 49t12 46q-35 32 -86 32t-76.5 -26t-25.5 -65t23 -66.5t57 -45t74 -40
t74 -44.5t57 -59.5t23 -85.5q0 -79 -54.5 -129t-139.5 -50t-150.5 39.5t-65.5 110.5q0 60 52 60q31 0 48 -19z" />
    <glyph glyph-name="T" unicode="T" horiz-adv-x="481" 
d="M282 574q-7 -78 -7 -250.5t8 -265.5l58 -6q2 -16 2 -25.5t-3 -27.5q-36 1 -103.5 1t-98.5 -1q-3 15 -3 25t2 28l55 6q8 107 8 271.5t-9 244.5q-39 -1 -108 -7l-3 -74q-16 -3 -30 -3t-26 1q-3 82 -9 152l5 5q74 -9 237 -9t204 9l5 -5q-7 -77 -9 -142q-12 -1 -25.5 -1
t-30.5 3l-3 67q-42 2 -116 4z" />
    <glyph glyph-name="U" unicode="U" horiz-adv-x="644" 
d="M483 276q0 216 -10 308l-35 3q-2 16 -2 27.5t3 28.5q32 -1 74 -1t73 1q3 -15 3 -26.5t-2 -29.5l-33 -3q-8 -98 -8 -232.5t-4 -175t-17.5 -79.5t-37.5 -62q-52 -50 -162 -50q-141 0 -185 79q-22 42 -29.5 90t-7.5 193t-10 237l-36 3q-2 16 -2 27.5t3 28.5q35 -1 81 -1
t80 1q3 -15 3 -26.5t-2 -29.5l-34 -3q-8 -98 -8 -308q0 -112 31 -164.5t123 -52.5t121.5 52.5t29.5 164.5z" />
    <glyph glyph-name="V" unicode="V" horiz-adv-x="569" 
d="M3 587q-2 16 -2 27.5t3 28.5q35 -1 87.5 -1t90.5 1q3 -15 3 -26.5t-2 -29.5l-35 -3q21 -114 61 -255.5t81 -241.5h6q36 88 77.5 241t58.5 256l-37 3q-2 8 -2 23.5t3 32.5q36 -1 87 -1t82 1q3 -15 3 -25.5t-2 -30.5l-35 -3q-45 -120 -108.5 -308t-85.5 -276
q-36 -9 -65.5 -9t-38.5 1q-103 369 -193 592z" />
    <glyph glyph-name="W" unicode="W" horiz-adv-x="814" 
d="M3 587q-2 16 -2 27.5t3 28.5q35 -1 89 -1t88 1q3 -15 3 -30t-2 -26l-35 -3q47 -317 113 -497h6q31 76 59.5 210.5t43.5 252.5q30 12 49.5 12t35.5 -2q45 -304 110 -473h6q34 95 64 240.5t42 256.5l-36 3q-2 8 -2 23.5t3 32.5q36 -1 87 -1t82 1q3 -15 3 -25.5t-2 -30.5
l-35 -3q-29 -91 -84 -286.5t-81 -297.5q-36 -9 -65.5 -9t-38.5 1q-14 48 -47.5 181t-49.5 194h-5q-67 -243 -98 -367q-36 -9 -65.5 -9t-38.5 1q-4 13 -65.5 253.5t-97.5 338.5z" />
    <glyph glyph-name="X" unicode="X" horiz-adv-x="537" 
d="M188 55q2 -8 2 -23.5t-3 -32.5q-36 1 -87 1t-82 -1q-3 15 -3 25.5t2 30.5l34 3q108 157 172 273q-69 120 -156 253l-36 3q-2 16 -2 27.5t3 28.5q35 -1 89.5 -1t92.5 1q3 -15 3 -26.5t-2 -29.5l-36 -3q46 -90 100 -189q48 76 93 189l-37 3q-2 8 -2 23.5t3 32.5
q36 -1 87 -1t82 1q3 -15 3 -25.5t-2 -30.5l-36 -3q-91 -134 -156 -252q79 -139 169 -274l37 -3q2 -16 2 -27.5t-3 -28.5q-35 1 -89.5 1t-92.5 -1q-3 15 -3 26.5t2 29.5l35 3q-53 104 -111 207q-69 -114 -109 -207z" />
    <glyph glyph-name="Y" unicode="Y" horiz-adv-x="495" 
d="M328 587q-2 16 -2 27.5t3 28.5q32 -1 79.5 -1t82.5 1q3 -17 3 -31.5t-2 -24.5l-35 -3q-137 -295 -162 -390q3 -76 8 -136l36 -3q2 -16 2 -27.5t-3 -28.5q-35 1 -81 1t-80 -1q-3 15 -3 26.5t2 29.5l35 3q6 87 7 138q-26 86 -140 314q-32 62 -38 74l-37 3q-2 16 -2 27.5
t3 28.5q35 -1 86.5 -1t85.5 1q3 -15 3 -26.5t-2 -29.5l-36 -3q19 -71 63 -167t56 -124h4q27 52 57 135.5t44 155.5z" />
    <glyph glyph-name="Z" unicode="Z" horiz-adv-x="486" 
d="M158 76q41 -3 94.5 -3t135.5 7l3 69q17 3 30.5 3t25.5 -1q3 -82 9 -152l-5 -5q-71 9 -200 9t-214 -7q-6 15 -7 36q43 68 160 269.5t160 271.5q-34 1 -94 1t-142 -7l-3 -74q-16 -3 -30 -3t-26 1q-3 82 -9 152l5 5q74 -9 216.5 -9t183.5 6q5 -10 5 -38q-43 -81 -160 -287
t-138 -244z" />
    <glyph glyph-name="bracketleft" unicode="[" horiz-adv-x="329" 
d="M301 16q8 -26 8 -48t-4 -40q-46 12 -114 12t-116 -5q16 134 16 412t-16 377q48 -5 116 -5t114 12q4 -18 4 -40t-8 -48q-47 8 -126 8q-6 -63 -6 -323.5t6 -319.5q79 0 126 8z" />
    <glyph glyph-name="backslash" unicode="\" horiz-adv-x="566" 
d="M96 670q29 18 55.5 18t35.5 -1q146 -407 298 -714q-27 -19 -66 -19q-7 0 -25 2q-150 422 -298 714z" />
    <glyph glyph-name="bracketright" unicode="]" horiz-adv-x="329" 
d="M28 643q-8 26 -8 48t4 40q46 -12 114 -12t116 5q-16 -134 -16 -412t16 -377q-48 5 -116 5t-114 -12q-4 18 -4 40t8 48q47 -8 126 -8q6 63 6 323.5t-6 319.5q-79 0 -126 -8z" />
    <glyph glyph-name="asciicircum" unicode="^" 
d="M229 622q12 6 41.5 6t42.5 -6q23 -59 82 -169q49 -99 67 -124q-7 -6 -28 -17t-36 -13q-28 68 -55 116q-58 109 -72 132q-76 -129 -127 -248q-15 2 -36 13t-28 17q20 30 67 124q59 110 82 169z" />
    <glyph glyph-name="underscore" unicode="_" horiz-adv-x="502" 
d="M474 -89q-98 9 -197.5 9t-166.5 -5t-86 -9q-4 14 -4 38t8 50q74 -9 175 -9t179 4.5t96 9.5q4 -18 4 -40t-8 -48z" />
    <glyph glyph-name="grave" unicode="`" horiz-adv-x="424" 
d="M294 528q-124 51 -184 75q1 28 10 44.5t30 34.5q46 -39 95.5 -71.5t68.5 -45.5q-5 -21 -20 -37z" />
    <glyph glyph-name="a" unicode="a" horiz-adv-x="473" 
d="M388 345l-4 -144q0 -68 8 -133l37 -3q2 -16 2 -29.5t-3 -28.5q-29 -1 -113 -10q-7 19 -11 47q-78 -59 -134.5 -59t-88 36.5t-31.5 104t42.5 106.5t107 39t110.5 -24q1 11 1 36q0 74 -20.5 106.5t-62.5 32.5t-61 -16q8 -16 8 -40t-15.5 -41.5t-43.5 -17.5q-47 0 -47 55.5
t42 85.5t118 30t117.5 -35.5t41.5 -97.5zM306 184q-41 35 -88 35q-90 0 -90 -80q0 -82 71 -82q26 0 55.5 13.5t46.5 33.5q5 60 5 80z" />
    <glyph glyph-name="b" unicode="b" horiz-adv-x="481" 
d="M346 271q0 143 -85 143q-61 0 -116 -65v-269q46 -23 97 -23q104 0 104 214zM145 410q70 68 141 68t108 -58t37 -162q0 -141 -48.5 -207t-152.5 -66q-65 0 -173 26q16 98 16 318t-5 285l-40 3q-3 12 -3 31t1 25q89 4 130 9l4 -5q-14 -120 -15 -267z" />
    <glyph glyph-name="c" unicode="c" horiz-adv-x="430" 
d="M293.5 324.5q-15.5 17.5 -15.5 43t7 38.5q-22 17 -52 17q-106 0 -106 -188q0 -86 27 -132t76.5 -46t122.5 62q29 -30 37 -79q-84 -55 -171 -55t-130.5 63t-43.5 186t48 183.5t136 60.5q69 0 112 -32.5t43 -85.5t-47 -53q-28 0 -43.5 17.5z" />
    <glyph glyph-name="d" unicode="d" horiz-adv-x="499" 
d="M337 454l1 63q0 60 -4 97l-40 3q-3 12 -3 31t1 25q89 4 130 9l4 -5q-15 -131 -15 -337.5t9 -272.5l37 -2q2 -22 2 -32.5t-3 -25.5q-39 -2 -109 -10q-8 16 -12 51q-69 -63 -139.5 -63t-108 64t-37.5 181.5t47.5 182.5t136.5 65q50 0 103 -24zM235 419q-100 0 -100 -199
q0 -75 22.5 -116.5t62.5 -41.5q27 0 59.5 17t56.5 43q2 124 2 268q-64 29 -103 29z" />
    <glyph glyph-name="e" unicode="e" horiz-adv-x="451" 
d="M218 222q-49 0 -91 5q2 -170 113 -170q56 0 124 62q29 -30 37 -79q-82 -55 -174 -55t-137 63.5t-45 186.5t50.5 183t143.5 60q69 0 114 -42t45.5 -103t-10.5 -87q-75 -24 -170 -24zM232 422q-93 0 -104 -137q45 -5 99 -5t84 10q4 25 4 37q0 44 -22.5 69.5t-60.5 25.5z
" />
    <glyph glyph-name="f" unicode="f" horiz-adv-x="331" 
d="M100 208l-3 200q-44 0 -57 -1q-6 17 -6 33t2 22h58q-1 9 -1 40q0 173 139 173q46 0 82.5 -20t36.5 -63q0 -56 -47 -56q-27 0 -42.5 16t-16 36t1.5 28q-9 4 -19 4q-62 0 -62 -124q0 -25 1 -33q75 1 125 6q6 -13 6 -29t-4 -37q-14 1 -122 4v-94l1 -76q0 -109 10 -179l36 -3
q2 -9 2 -24t-3 -32q-28 1 -82 1t-79 -1q-3 15 -3 28.5t2 27.5l34 3q10 97 10 150z" />
    <glyph glyph-name="g" unicode="g" horiz-adv-x="466" 
d="M220 478q12 0 18 -1q63 96 137 96q65 0 65 -63q0 -44 -43.5 -44t-50.5 45q-29 0 -54 -43q97 -32 97 -160q0 -78 -31 -130q-35 -58 -138 -58q-43 0 -70 10q-21 -37 -31 -81q17 -3 36 -3t76 7t82 7q52 0 84 -26t32 -80t-35 -94q-61 -70 -190 -70q-87 0 -133 22t-46 82
q0 44 47 91q-19 14 -19 39q0 53 51 130q-53 43 -53 154q0 170 169 170zM220 189q88 0 88 118t-88 118t-88 -118t88 -118zM106 -91q0 -64 117 -64q50 0 89.5 22t39.5 66q0 49 -53 49q-26 0 -82 -6.5t-90 -6.5h-8q-13 -28 -13 -60z" />
    <glyph glyph-name="h" unicode="h" horiz-adv-x="533" 
d="M443 350l-1 -97q0 -106 12 -195l35 -3q2 -16 2 -27.5t-3 -28.5q-35 1 -82.5 1t-81.5 -1q-3 15 -3 26.5t2 29.5l35 3q8 108 8 192t-14.5 124t-58.5 40q-56 0 -120 -64v-94q0 -123 9 -198l37 -3q2 -16 2 -27.5t-3 -28.5q-35 1 -81 1t-80 -1q-3 15 -3 26.5t2 29.5l35 3
q9 94 9 174v137q0 180 -5 245l-40 3q-3 13 -3 30.5t1 25.5q91 5 130 9l4 -5q-14 -119 -14 -268q30 30 72 49.5t80 19.5q118 0 118 -128z" />
    <glyph glyph-name="i" unicode="i" horiz-adv-x="263" 
d="M91 58q9 98 9 179.5t-8 169.5l-37 3q-3 17 -3 32.5t1 23.5q58 2 124 9l5 -5q-9 -59 -9 -198t9 -214l37 -3q2 -16 2 -27.5t-3 -28.5q-35 1 -81 1t-80 -1q-3 15 -3 31t2 25zM192 613q0 -62 -64 -62q-50 0 -50 51q0 63 64 63q50 0 50 -52z" />
    <glyph glyph-name="j" unicode="j" horiz-adv-x="254" 
d="M175 256l3 -269q0 -197 -135 -197q-58 0 -103 32q0 57 33 83q11 -16 32 -28.5t41 -12.5q56 0 56 140v232q0 83 -8 171l-37 3q-3 17 -3 32.5t1 23.5q58 2 124 9l5 -5q-9 -59 -9 -214zM194 613q0 -62 -64 -62q-50 0 -50 51q0 63 64 63q50 0 50 -52z" />
    <glyph glyph-name="k" unicode="k" horiz-adv-x="476" 
d="M93 232v137q0 180 -5 245l-40 3q-3 13 -3 30.5t1 25.5q91 5 130 9l4 -5q-14 -119 -14 -256v-165q0 -123 9 -198l37 -3q2 -16 2 -27.5t-3 -28.5q-35 1 -81 1t-80 -1q-3 15 -3 26.5t2 29.5l35 3q9 94 9 174zM318 467q25 -1 60.5 -1t63.5 1q3 -13 3 -28.5t-2 -27.5l-43 -3
q-18 -22 -64 -74t-68 -78q97 -138 150 -198l43 -3q2 -12 2 -27.5t-3 -28.5q-36 1 -76 1t-66 -1q-4 42 -11 59q-35 69 -125 169l3 10q79 96 121 171q8 20 12 59z" />
    <glyph glyph-name="l" unicode="l" horiz-adv-x="252" 
d="M93 232v137q0 180 -5 245l-40 3q-3 13 -3 30.5t1 25.5q91 5 130 9l4 -5q-14 -119 -14 -256v-165q0 -123 9 -198l37 -3q2 -16 2 -27.5t-3 -28.5q-35 1 -81 1t-80 -1q-3 15 -3 26.5t2 29.5l35 3q9 94 9 174z" />
    <glyph glyph-name="m" unicode="m" horiz-adv-x="763" 
d="M672 335l-1 -82q0 -105 12 -195l36 -3q2 -9 2 -24t-3 -32q-28 1 -84 1t-80 -1q-3 15 -3 28.5t2 27.5l34 3q8 117 8 200.5t-15 119.5t-50 36q-50 0 -107 -66l-1 -95q0 -105 12 -195l35 -3q2 -16 2 -27.5t-3 -28.5q-28 1 -84 1t-80 -1q-3 15 -3 28.5t2 27.5l35 3
q8 117 8 200.5t-15 119.5t-50 36q-51 0 -107 -65q-1 -26 -1 -121.5t9 -169.5l37 -3q2 -22 2 -30.5t-3 -25.5q-28 1 -82 1t-79 -1q-3 15 -3 28.5t2 27.5l35 3q9 100 9 183.5t-8 165.5l-37 3q-3 17 -3 33.5t1 22.5q51 1 124 9l5 -5q-3 -21 -6 -59q29 30 67 48.5t71 18.5
q82 0 103 -77q29 34 69.5 55.5t76.5 21.5q56 0 82.5 -34.5t26.5 -108.5z" />
    <glyph glyph-name="n" unicode="n" horiz-adv-x="533" 
d="M443 350l-1 -97q0 -105 12 -195l35 -3q2 -22 2 -30.5t-3 -25.5q-28 1 -84 1t-80 -1q-3 15 -3 28.5t2 27.5l35 3q8 117 8 200.5t-16.5 119.5t-56.5 36q-54 0 -119 -65q-1 -26 -1 -121.5t9 -169.5l37 -3q2 -22 2 -30.5t-3 -25.5q-28 1 -82 1t-79 -1q-3 15 -3 28.5t2 27.5
l35 3q9 100 9 183.5t-8 165.5l-37 3q-3 17 -3 33.5t1 22.5q51 1 124 9l5 -5q-2 -12 -6 -60q31 31 72 49.5t77 18.5q118 0 118 -128z" />
    <glyph glyph-name="o" unicode="o" horiz-adv-x="466" 
d="M233 478q188 0 188 -241q0 -111 -35 -176q-40 -76 -153 -76t-153 76q-35 65 -35 176q0 241 188 241zM233 57q106 0 106 182.5t-106 182.5t-106 -182.5t106 -182.5z" />
    <glyph glyph-name="p" unicode="p" horiz-adv-x="494" 
d="M303 478q141 0 141 -240q0 -92 -36 -167q-20 -40 -60 -63t-89 -23t-102 24q5 -125 9 -160l37 -3l2 -26q0 -20 -3 -30q-24 1 -82.5 1t-78.5 -1q-3 17 -3 30t2 26l37 3q8 109 8 291.5t-8 266.5l-37 3q-3 9 -3 28.5t1 27.5q46 1 123 9l5 -5q-4 -29 -5 -57q69 65 142 65z
M250 57q109 0 109 194q0 118 -39 149q-18 14 -47 14t-61 -19t-54 -46q-2 -83 -2 -269q58 -23 94 -23z" />
    <glyph glyph-name="q" unicode="q" horiz-adv-x="498" 
d="M424 452q-15 -129 -15 -316t10 -287l37 -3q2 -18 2 -28t-3 -28q-23 1 -83 1t-80 -1q-3 16 -3 29.5t2 26.5l36 3q9 98 9 204q-71 -68 -141.5 -68t-107.5 58t-37 162q0 141 48.5 207t152.5 66q63 0 173 -26zM135 200q0 -143 85 -143q58 0 116 65v277q-44 23 -96 23
t-78.5 -52.5t-26.5 -169.5z" />
    <glyph glyph-name="r" unicode="r" horiz-adv-x="347" 
d="M71 58q9 100 9 183.5t-8 165.5l-37 3q-3 16 -3 33t1 23q51 1 124 9l5 -5q-1 -6 -6 -59q23 29 53.5 48t60 19t51.5 -21t22 -55q0 -56 -47 -56q-27 0 -43 17.5t-16 46.5q-2 1 -7 1q-37 0 -76 -56q-1 -28 -1 -125.5t9 -171.5l37 -3q2 -22 2 -30.5t-3 -25.5q-28 1 -82 1
t-79 -1q-3 15 -3 28.5t2 27.5z" />
    <glyph glyph-name="s" unicode="s" horiz-adv-x="403" 
d="M312.5 445q41.5 -33 41.5 -85.5t-47 -52.5q-28 0 -43.5 17.5t-15.5 41.5t8 40q-24 19 -57 19t-54.5 -16t-21.5 -47t24.5 -54t59.5 -37.5t70 -30t59.5 -44t24.5 -70.5q0 -65 -43.5 -103t-118.5 -38t-122.5 32t-47.5 84v4q0 54 47 54q28 0 43.5 -17.5t15.5 -40.5t-5 -36
q20 -13 63.5 -13t66 15t22.5 41.5t-24.5 47.5t-59.5 35.5t-70 31t-59.5 47.5t-24.5 74q0 62 43.5 98t113.5 36t111.5 -33z" />
    <glyph glyph-name="t" unicode="t" horiz-adv-x="307" 
d="M75 162l2 223q0 15 -1 23q-42 0 -60 -1q-6 16 -6 31.5t2 23.5h61l-5 74q25 8 52.5 8t45.5 -4l-9 -77q55 1 111 6q6 -13 6 -28.5t-4 -37.5q-37 2 -117 4q-2 -20 -2 -59v-203q0 -26 2.5 -42.5t13 -30t30.5 -13.5q44 0 84 31q21 -30 21 -81q-55 -24 -95.5 -24t-64.5 10.5
t-37 25t-20 40.5q-10 37 -10 101z" />
    <glyph glyph-name="u" unicode="u" horiz-adv-x="502" 
d="M82 129l1 107q0 89 -8 171l-37 3q-3 16 -3 33t1 23q51 1 124 9l5 -5q-9 -59 -9 -211v-47q0 -84 15.5 -119.5t52.5 -35.5q52 0 113 61q2 23 2 89v29q0 89 -8 171l-37 3q-3 17 -3 33.5t1 22.5q51 1 124 9l5 -5q-9 -59 -9 -211v-32q0 -82 9 -160l37 -2q2 -22 2 -32.5
t-3 -25.5q-39 -2 -109 -10q-8 18 -12 50q-75 -62 -138 -62t-89.5 35t-26.5 109z" />
    <glyph glyph-name="v" unicode="v" horiz-adv-x="454" 
d="M279 411q-2 10 -2 26.5t3 29.5q30 -1 83.5 -1t82.5 1q3 -13 3 -28t-2 -28l-33 -3q-126 -293 -155 -408q-26 -7 -46.5 -7t-27.5 1q-57 202 -155 414l-33 3q-2 12 -2 27.5t3 28.5q29 -1 86.5 -1t87.5 1q3 -13 3 -28.5t-2 -27.5l-41 -3q20 -129 92 -297h4q26 50 53 136.5
t40 160.5z" />
    <glyph glyph-name="w" unicode="w" horiz-adv-x="645" 
d="M281 410q30 7 51.5 7t39.5 -3q20 -164 57 -303h4q23 50 45.5 136t32.5 161l-41 3q-2 10 -2 26.5t3 29.5q30 -1 83.5 -1t82.5 1q3 -13 3 -28t-2 -28l-34 -3q-116 -298 -144 -408q-26 -7 -46.5 -7t-27.5 1q-11 78 -66 287h-4q-57 -172 -82 -281q-26 -7 -46.5 -7t-27.5 1
q-18 81 -55 199.5t-75 214.5l-33 3q-2 12 -2 27.5t3 28.5q29 -1 87 -1t88 1q3 -13 3 -28.5t-2 -27.5l-40 -3q14 -113 69 -297h4q22 50 45 142.5t29 156.5z" />
    <glyph glyph-name="x" unicode="x" horiz-adv-x="411" 
d="M3 -1l-3 26q0 17 2 30l44 3q46 67 123 170q-19 28 -56.5 88t-57.5 91l-43 3q-2 12 -2 28t3 29q32 -1 72 -1t66 1q3 -43 12 -60q52 -108 53 -110q36 60 55 111l-33 3q-2 10 -2 26.5t3 29.5q27 -1 80 -1t82 1q3 -13 3 -28t-2 -28l-44 -3q-80 -125 -110 -170
q21 -31 60.5 -91.5t58.5 -88.5l43 -3q2 -12 2 -27.5t-3 -28.5q-32 1 -70.5 1t-64.5 -1q-4 44 -13.5 64.5t-60.5 111.5q-7 -13 -20 -35q-29 -48 -46 -82l32 -3q2 -10 2 -26.5t-3 -29.5q-27 1 -80 1t-82 -1z" />
    <glyph glyph-name="y" unicode="y" horiz-adv-x="439" 
d="M264 411q-2 10 -2 26.5t3 29.5q30 -1 83.5 -1t82.5 1q3 -13 3 -28t-2 -28l-30 -3q-27 -73 -69.5 -201t-64 -188t-40 -97t-40.5 -70q-42 -62 -99.5 -62t-105.5 32q4 58 33 83q30 -41 73 -41q46 0 102 130q-51 179 -161 414l-33 3q-2 12 -2 27.5t3 28.5q29 -1 86.5 -1
t87.5 1q3 -13 3 -28.5t-2 -27.5l-41 -3q19 -111 98 -297h4q50 162 72 297z" />
    <glyph glyph-name="z" unicode="z" horiz-adv-x="400" 
d="M301 128q16 3 30 3t26 -1q2 -48 9 -132l-5 -5q-63 9 -160.5 9t-178.5 -6q-6 15 -7 36q43 67 129.5 189.5t122.5 175.5q-116 -2 -183 -7l-3 -52q-16 -3 -30 -3t-26 1q-2 48 -9 132l5 5q63 -9 174 -9t165 6q5 -10 5 -38q-40 -76 -116.5 -190.5t-106.5 -168.5q93 1 156 7z
" />
    <glyph glyph-name="braceleft" unicode="{" horiz-adv-x="344" 
d="M178 588l12 -149q0 -39 -17 -70.5t-47 -35.5v-6q30 -4 47 -35.5t17 -70.5l-12 -149q0 -38 11 -52t44 -14t83 11q8 -26 8 -48t-4 -40q-46 12 -111.5 12t-88 29.5t-22.5 82.5l11 152q0 42 -15 67t-57 31q-7 10 -7 27t7 27q42 6 57 31t15 67l-11 152q0 53 22.5 82.5t88 29.5
t111.5 12q4 -18 4 -40t-8 -48q-50 11 -83 11t-44 -14t-11 -52z" />
    <glyph glyph-name="bar" unicode="|" horiz-adv-x="263" 
d="M93 -85q10 141 10 413t-13 389q26 12 43 12t37 -3q-10 -137 -10 -438.5t13 -363.5q-29 -12 -47 -12t-33 3z" />
    <glyph glyph-name="braceright" unicode="}" horiz-adv-x="344" 
d="M166 72l-12 149q0 39 17 70.5t47 35.5v6q-30 4 -47 35.5t-17 70.5l12 149q0 38 -11 52t-44 14t-83 -11q-8 26 -8 48t4 40q46 -12 111.5 -12t88 -29.5t22.5 -82.5l-11 -152q0 -42 15 -67t57 -31q7 -10 7 -27t-7 -27q-42 -6 -57 -31t-15 -67l11 -152q0 -53 -22.5 -82.5
t-88 -29.5t-111.5 -12q-4 18 -4 40t8 48q50 -11 83 -11t44 14t11 52z" />
    <glyph glyph-name="asciitilde" unicode="~" 
d="M502 288q-25 33 -70 33t-131 -28.5t-133.5 -28.5t-83.5 27q0 39 14 76q25 -33 70.5 -33t132 28.5t134 28.5t83.5 -27q0 -34 -16 -76z" />
    <glyph glyph-name="exclamdown" unicode="&#xa1;" horiz-adv-x="270" 
d="M149 88q0 -184 26 -288q-30 -11 -58 -11t-52 6q20 189 20 423q0 33 -2 65q20 6 34.5 6t33.5 -6q-2 -106 -2 -195zM50 408q0 30 18 50t55 20q57 0 57 -58q0 -72 -73 -72q-57 0 -57 60z" />
    <glyph glyph-name="cent" unicode="&#xa2;" horiz-adv-x="470" 
d="M333.5 402.5q-15.5 17.5 -15.5 43t7 38.5q-21 17 -63 17q-65 0 -102.5 -50.5t-37.5 -134.5t36 -132t95 -48q81 0 140 62q29 -30 37 -79q-74 -55 -165 -55q2 -47 5 -59q-29 -13 -51.5 -13t-39.5 3l8 78q-147 38 -147 238q0 98 42 160t121 79q0 11 -4 82q19 13 62 13
q9 0 29 -3q-6 -42 -9 -86q68 -5 105.5 -36t37.5 -83t-47 -52q-28 0 -43.5 17.5z" />
    <glyph glyph-name="sterling" unicode="&#xa3;" horiz-adv-x="546" 
d="M136 215q0 30 -3 60h-70q-8 18 -8 31t3 25h69q-15 119 -15 160q0 83 49.5 129t138.5 46q64 0 111 -28t66 -78q6 -18 6 -39q0 -60 -52 -60q-31 0 -48 19t-17 49.5t12 46.5q-31 31 -78.5 31t-73.5 -32.5t-26 -81.5t9 -162q115 2 182 8q7 -13 7 -35.5t-4 -34.5
q-113 5 -181 5q2 -50 2 -89.5t-13 -117.5h95q39 0 108 5t85 9q4 -19 4 -41t-8 -47q-76 9 -163.5 9t-165 -5t-92.5 -9q-10 27 -10 55l60 29q21 64 21 143z" />
    <glyph glyph-name="yen" unicode="&#xa5;" horiz-adv-x="494" 
d="M330 587q-2 16 -2 27.5t3 28.5q32 -1 79.5 -1t82.5 1q3 -17 3 -31.5t-2 -24.5l-35 -3q-2 -5 -33 -72t-49 -107q49 2 74 4q7 -14 7 -34.5t-4 -35.5q-32 2 -103 4q-19 -46 -35 -90h134q8 -16 8 -30t-3 -26q-102 0 -158 -1q3 -77 8 -138l36 -3q2 -16 2 -27.5t-3 -28.5
q-35 1 -81 1t-80 -1q-3 15 -3 26.5t2 29.5l35 3q6 87 7 137q-94 -2 -158 -6q-7 14 -7 34.5t4 35.5q74 -4 140 -5q-5 14 -39 91h-97q-8 16 -8 30t3 26h76q-11 21 -44 86l-48 97l-37 3q-2 16 -2 27.5t3 28.5q35 -1 86.5 -1t85.5 1q3 -15 3 -26.5t-2 -29.5l-36 -3
q19 -71 63 -167t56 -124h4q27 52 57 135.5t44 155.5z" />
    <glyph glyph-name="brokenbar" unicode="&#xa6;" horiz-adv-x="263" 
d="M173 -76q-31 -12 -48 -12t-32 3q10 141 10 336q27 7 39 7t18 -1q0 -271 13 -333zM90 717q25 12 45 12t35 -3q-10 -141 -10 -336q-27 -7 -39.5 -7t-17.5 1q0 271 -13 333z" />
    <glyph glyph-name="section" unicode="&#xa7;" horiz-adv-x="480" 
d="M322 469q-17 19 -17 50t13 47q-30 30 -81.5 30t-77 -26t-25.5 -66t23 -65.5t57.5 -39.5t75 -31.5t75 -36t57.5 -55t23 -86.5q0 -80 -58 -120q58 -48 58 -123.5t-51.5 -116t-146.5 -40.5q-133 0 -212 76q4 24 16.5 44t22.5 28l11 7q59 -81 162 -81q52 0 81 22t29 59.5
t-32 62t-77.5 41.5t-90.5 37.5t-77 60.5t-32 99q0 79 53 123q-53 46 -53 122t50 120t126 44q150 0 192 -106q6 -18 6 -39q0 -60 -52 -60q-31 0 -48 19zM163 329q-29 -26 -29 -71.5t31 -71t138 -69.5q54 19 54 76q0 43 -51 73q-15 9 -61.5 27t-81.5 36z" />
    <glyph glyph-name="dieresis" unicode="&#xa8;" horiz-adv-x="473" 
d="M213 607q0 -55 -58 -55q-45 0 -45 46q0 56 58 56q45 0 45 -47zM363 607q0 -55 -58 -55q-45 0 -45 46q0 56 58 56q45 0 45 -47z" />
    <glyph glyph-name="copyright" unicode="&#xa9;" horiz-adv-x="616" 
d="M503.5 658q52.5 -60 52.5 -183.5t-64 -193t-195 -69.5t-184 63t-53 186q0 55 11 97.5t39 80.5q58 79 218 79q123 0 175.5 -60zM331 674q-218 0 -218 -205q0 -119 41.5 -166t130.5 -47q111 0 164.5 58t53.5 161.5t-41.5 151t-130.5 47.5zM344 522.5q-11 13.5 -11 31.5
t7 28q-14 11 -35 11q-75 0 -75 -125.5t75 -125.5q40 0 73 38q22 -19 27 -51q-47 -35 -100 -35q-75 0 -101 45.5t-26 127.5q0 165 127 165q40 0 71.5 -23t31.5 -61.5t-32 -38.5q-21 0 -32 13.5z" />
    <glyph glyph-name="ordfeminine" unicode="&#xaa;" horiz-adv-x="327" 
d="M284 419l1 -19q0 -5 -2 -17q-16 -1 -42 -3.5t-37 -3.5q-3 9 -5 28q-34 -31 -72.5 -31t-57.5 23.5t-19 63.5q0 86 98 86q30 0 55 -12q2 22 2 37q0 67 -47 67q-24 0 -38 -12q5 -10 5 -20q0 -38 -34 -38q-30 0 -30 33q0 72 103 72q42 0 68 -21t26 -62l-3 -85q0 -35 7 -85z
M49 262q-6 12 -6 27.5t6 36.5q199 13 240 23q6 -18 6 -32t-6 -35q-206 -13 -240 -20zM148 510q-42 0 -42 -42.5t36 -42.5t56 24q3 39 3 44q-23 17 -53 17z" />
    <glyph glyph-name="guillemotleft" unicode="&#xab;" horiz-adv-x="495" 
d="M228 426l-81 -146q7 -13 81 -146q-20 -20 -48 -26q-18 22 -41 50t-35 44q-30 36 -74 78q44 42 65 68t44 54t41 50q31 -9 48 -26zM425 426q-79 -142 -81 -146q33 -62 81 -146q-23 -21 -48 -26q-18 22 -41 50t-36 44q-29 36 -73 78q44 42 65 68t44 54t41 50q28 -8 48 -26z
" />
    <glyph glyph-name="logicalnot" unicode="&#xac;" 
d="M446 286q-92 9 -148 9t-123 -4.5t-85 -9.5q-3 14 -3 40t7 48q69 -9 167 -9q200 0 250 14q-4 -43 -4 -105.5t11 -101.5q-14 -3 -36.5 -3t-43.5 7q8 42 8 115z" />
    <glyph glyph-name="registered" unicode="&#xae;" horiz-adv-x="616" 
d="M503.5 658q52.5 -60 52.5 -183.5t-64 -193t-195 -69.5t-184 63t-53 186q0 55 11 97.5t39 80.5q58 79 218 79q123 0 175.5 -60zM331 674q-218 0 -218 -205q0 -119 41.5 -166t130.5 -47q111 0 164.5 58t53.5 161.5t-41.5 151t-130.5 47.5zM286 334q1 -6 1 -17.5t-2 -18.5
q-21 1 -51.5 1t-50.5 -1q-3 10 -3 19t1 17l23 1q5 52 5 125t-4 117l-25 2q-2 12 -2 21.5t1 14.5q6 1 48 9t73 8q61 0 87 -26t26 -68.5t-20.5 -70.5t-60.5 -34q21 -35 61 -95l28 -2q1 -6 1 -16.5t-1 -19.5q-56 -2 -73 -3q-47 95 -73 137q0 29 11 40q13 -6 30 -6t30 19t13 44
q0 62 -59 62q-22 0 -40 -7q-3 -37 -3 -114t5 -137z" />
    <glyph glyph-name="macron" unicode="&#xaf;" horiz-adv-x="467" 
d="M352 571q-47 4 -128 4t-113 -8q-1 7 -1 30t4 39q40 -4 123.5 -4t117.5 9q2 -14 2 -34t-5 -36z" />
    <glyph glyph-name="degree" unicode="&#xb0;" horiz-adv-x="342" 
d="M274.5 651.5q27.5 -31.5 27.5 -96.5t-34 -101.5t-103 -36.5t-97 33t-28 96.5t30.5 100t103.5 36.5t100.5 -31.5zM180 631q-85 0 -85 -79q0 -46 16 -64.5t55 -18.5t60 22.5t21 63t-16 58.5t-51 18z" />
    <glyph glyph-name="plusminus" unicode="&#xb1;" 
d="M259 574q22 7 48 7t40 -3q-5 -17 -9.5 -80.5t-4.5 -97.5q34 0 97.5 4.5t80.5 9.5q3 -14 3 -40t-7 -48q-76 7 -174 9q0 -108 9 -174q-22 -7 -48 -7t-40 3q11 44 14 178q-134 -3 -178 -14q-3 13 -3 39.5t7 48.5q66 -9 174 -9q-2 98 -9 174zM507 -5q-92 9 -178.5 9
t-153.5 -4.5t-85 -9.5q-3 13 -3 39.5t7 48.5q69 -9 167 -9q200 0 250 14q3 -13 3 -39.5t-7 -48.5z" />
    <glyph glyph-name="twosuperior" unicode="&#xb2;" horiz-adv-x="349" 
d="M251 361l2 42q13 3 27 3h23q2 -54 5 -99l-9 -9q-45 7 -117 7h-11q-77 0 -130 -10q-4 20 -4 32q30 52 96 118q94 94 94 142q0 23 -14 42.5t-43.5 19.5t-48.5 -18q5 -10 5 -25.5t-11 -28.5t-33 -13q-35 0 -35 41.5t37.5 67t88 25.5t86.5 -28t36 -81q0 -28 -17.5 -60
t-35 -52t-57 -61t-52.5 -58l99 2q9 0 19 1z" />
    <glyph glyph-name="threesuperior" unicode="&#xb3;" horiz-adv-x="370" 
d="M136 632q3 -9 3 -24.5t-12 -29.5t-35 -14q-38 0 -38 43t37.5 67t88 24t86.5 -28t36 -84t-42 -82q56 -29 56 -87t-36 -90.5t-114 -32.5t-125 44q3 17 12.5 32t17.5 22l8 6q35 -51 90 -51q40 0 59.5 18t19.5 46q0 46 -40 62q-15 -1 -39.5 -1t-43.5 3q-2 12 -2 23.5t8 23.5
q17 -6 45.5 -6t44 22t15.5 46.5t-14.5 43t-42.5 18.5t-43 -14z" />
    <glyph glyph-name="acute" unicode="&#xb4;" horiz-adv-x="424" 
d="M130 528q-15 16 -20 37q19 13 48 32t42 29q41 28 74 56q21 -18 30 -34.5t10 -44.5q-60 -24 -184 -75z" />
    <glyph glyph-name="mu" unicode="&#xb5;" horiz-adv-x="485" 
d="M422 464q-15 -136 -15 -232.5t8 -164.5l38 -2q2 -16 2 -29t-3 -29q-39 -2 -109 -10q-8 18 -12 50q-36 -30 -62 -41t-65.5 -11t-65.5 23q5 -117 25 -195q-30 -11 -55.5 -11t-49.5 6q20 189 20 367t-18 273q22 9 50.5 9t55.5 -3q-15 -137 -15 -233t13.5 -135t60 -39
t107.5 61q2 30 2 89q0 165 -18 251q38 10 63 10t43 -4z" />
    <glyph glyph-name="paragraph" unicode="&#xb6;" horiz-adv-x="512" 
d="M409 571q-9 -72 -9 -242.5t9 -270.5l36 -3q2 -16 2 -27.5t-3 -28.5q-35 1 -84 1t-87 -1q-3 15 -3 26.5t2 29.5l45 3q6 86 8 222q-20 -5 -46 -5q-102 0 -153 55t-51 135q0 190 218 190q113 0 191 -38q0 -27 -7 -48.5t-14 -27.5q-24 17 -54 30zM315 597l-21 1
q-132 0 -132 -129q0 -49 24 -88t79 -39q33 0 60 16q0 138 -10 239z" />
    <glyph glyph-name="periodcentered" unicode="&#xb7;" horiz-adv-x="270" 
d="M220 253q0 -30 -18 -50t-55 -20q-57 0 -57 58q0 72 73 72q57 0 57 -60z" />
    <glyph glyph-name="cedilla" unicode="&#xb8;" horiz-adv-x="502" 
d="M337 -124q0 -86 -111 -86q-45 0 -74 12q-1 3 -1 18.5t13 35.5q22 -20 63.5 -20t41.5 39q0 30 -45 30q-20 0 -48 -4l16 89l42 9l2 -53q101 -4 101 -70z" />
    <glyph glyph-name="onesuperior" unicode="&#xb9;" horiz-adv-x="285" 
d="M207 694q-9 -66 -9 -177t5 -167l56 -5q1 -6 1 -18.5t-3 -29.5q-34 1 -89 1t-88 -1q-4 12 -4 25.5t2 22.5l55 5q4 67 4 149t-2 117q-51 -34 -68 -51q-29 31 -37 63q44 18 132 70q36 0 45 -4z" />
    <glyph glyph-name="ordmasculine" unicode="&#xba;" horiz-adv-x="331" 
d="M50 526q0 147 115.5 147t115.5 -147q0 -71 -25 -112t-91 -41t-90.5 41t-24.5 112zM165 425q57 0 57 102.5t-57 102.5t-57 -102.5t57 -102.5zM54 262q-6 12 -6 27.5t6 36.5q198 14 222 19q6 -12 6 -27.5t-6 -36.5q-198 -14 -222 -19z" />
    <glyph glyph-name="guillemotright" unicode="&#xbb;" horiz-adv-x="495" 
d="M348 280l-81 146q17 17 48 26q18 -22 41 -50t36 -44q29 -36 73 -78q-44 -42 -65 -68t-44 -54t-41 -50q-27 6 -48 26q74 133 81 146zM70 426q20 18 48 26q18 -22 41 -50t35 -44q30 -36 74 -78q-44 -42 -65 -68t-44 -54t-41 -50q-25 5 -48 26q48 84 81 146q-2 4 -81 146z
" />
    <glyph glyph-name="onequarter" unicode="&#xbc;" horiz-adv-x="889" 
d="M305 -46q-34 0 -57 19q124 292 254 713q16 2 26 2q28 0 53 -18q-121 -279 -255 -714q-16 -2 -21 -2zM635 383q23 9 45 9t56 -3q-9 -68 -9 -142t1 -89q24 4 31 6q6 -18 6 -35.5t-7 -35.5q-27 3 -28 3q0 -29 3 -50l30 -4q1 -6 1 -19t-3 -29q-25 1 -66 1t-61 -1
q-4 12 -4 25.5t2 22.5l28 4q0 1 3 53h-44q-81 0 -129 -3q-5 13 -5 31q105 164 150 256zM665 153q1 11 1 59t-3 115q-36 -54 -98 -175q70 1 100 1zM257 649q-9 -66 -9 -177t5 -167l56 -5q1 -6 1 -19t-3 -29q-34 1 -89 1t-88 -1q-4 12 -4 25.5t2 22.5l55 5q4 67 4 149t-2 117
q-51 -34 -68 -51q-29 31 -37 63q44 18 132 70q36 0 45 -4z" />
    <glyph glyph-name="onehalf" unicode="&#xbd;" horiz-adv-x="889" 
d="M294 -46q-34 0 -57 19q124 292 254 713q16 2 26 2q28 0 53 -18q-121 -279 -255 -714q-16 -2 -21 -2zM723 58l2 42q13 3 27 3h23q2 -54 5 -99l-9 -9q-45 7 -117 7h-11q-77 0 -130 -10q-4 20 -4 32q30 52 96 118q94 94 94 142q0 23 -14 42.5t-43.5 19.5t-48.5 -18
q5 -10 5 -25.5t-11 -28.5t-33 -13q-35 0 -35 41.5t37.5 67t88 25.5t86.5 -28t36 -81q0 -28 -17.5 -60t-35 -52t-57 -61t-52.5 -58l76 1q22 0 42 2zM257 649q-9 -66 -9 -177t5 -167l56 -5q1 -6 1 -19t-3 -29q-34 1 -89 1t-88 -1q-4 12 -4 25.5t2 22.5l55 5q4 67 4 149t-2 117
q-51 -34 -68 -51q-29 31 -37 63q44 18 132 70q36 0 45 -4z" />
    <glyph glyph-name="threequarters" unicode="&#xbe;" horiz-adv-x="889" 
d="M335 -46q-34 0 -57 19q124 292 254 713q16 2 26 2q28 0 53 -18q-121 -279 -255 -714q-16 -2 -21 -2zM635 383q23 9 45 9t56 -3q-9 -68 -9 -142t1 -89q24 4 31 6q6 -18 6 -35.5t-7 -35.5q-27 3 -28 3q0 -29 3 -50l30 -4q1 -6 1 -19t-3 -29q-25 1 -66 1t-61 -1
q-4 12 -4 25.5t2 22.5l28 4q0 1 3 53h-44q-81 0 -129 -3q-5 13 -5 31q105 164 150 256zM665 153q1 11 1 59t-3 115q-36 -54 -98 -175q70 1 100 1zM168 587q3 -9 3 -24.5t-12 -29.5t-35 -14q-38 0 -38 43t37.5 67t88 24t86.5 -28t36 -84t-42 -82q56 -29 56 -87t-36 -90.5
t-114 -32.5t-125 44q3 17 12.5 32t17.5 21l8 7q35 -51 90 -51q40 0 59.5 18t19.5 46q0 46 -40 62q-15 -1 -39.5 -1t-43.5 3q-2 12 -2 23.5t8 23.5q17 -6 45.5 -6t44 22t15.5 46.5t-14.5 43t-42.5 18.5t-43 -14z" />
    <glyph glyph-name="questiondown" unicode="&#xbf;" horiz-adv-x="429" 
d="M224 -154q36 0 58 19q-9 15 -9 39t15 42.5t44 18.5q47 0 47 -56.5t-48 -87.5t-110.5 -31t-114.5 38t-52 104q0 63 58 114q24 21 48 40q59 47 59 91.5t-31 78.5q25 33 61 37q38 -70 38 -119.5t-54 -106.5q-8 -9 -31.5 -32.5t-33.5 -35.5q-31 -37 -31 -71t25.5 -58
t61.5 -24zM161 408q0 30 18 50t55 20q57 0 57 -58q0 -72 -73 -72q-57 0 -57 60z" />
    <glyph glyph-name="Agrave" unicode="&#xc0;" horiz-adv-x="561" 
d="M151 613q0 19 1 25q88 11 131 11t73 -10q24 -188 167 -581l37 -3q2 -22 2 -30.5t-3 -25.5q-28 1 -87 1t-82 -1q-3 15 -3 28.5t2 27.5l35 3q-5 24 -16 69.5t-12 50.5q-57 3 -123.5 3t-124.5 -4l-28 -119l38 -3q2 -22 2 -30.5t-3 -25.5q-24 1 -78.5 1t-76.5 -1
q-3 15 -3 28.5t2 27.5l35 3q120 329 158 521l-40 3q-3 12 -3 31zM166 247q34 -1 102 -1t110 3q-47 178 -99 329h-6q-59 -143 -107 -331zM338 704q-63 13 -180 55q0 33 6.5 48.5t26.5 37.5q38 -32 65.5 -47.5t34 -19.5t31.5 -18t32 -18q-3 -21 -16 -38z" />
    <glyph glyph-name="Aacute" unicode="&#xc1;" horiz-adv-x="561" 
d="M151 613q0 19 1 25q88 11 131 11t73 -10q24 -188 167 -581l37 -3q2 -22 2 -30.5t-3 -25.5q-28 1 -87 1t-82 -1q-3 15 -3 28.5t2 27.5l35 3q-5 24 -16 69.5t-12 50.5q-57 3 -123.5 3t-124.5 -4l-28 -119l38 -3q2 -22 2 -30.5t-3 -25.5q-24 1 -78.5 1t-76.5 -1
q-3 15 -3 28.5t2 27.5l35 3q120 329 158 521l-40 3q-3 12 -3 31zM166 247q34 -1 102 -1t110 3q-47 178 -99 329h-6q-59 -143 -107 -331zM397 768q0 -12 -1 -18q-123 -37 -182 -46q-13 17 -15 39q21 11 50.5 26t44.5 23q44 24 73 46q30 -33 30 -70z" />
    <glyph glyph-name="Acircumflex" unicode="&#xc2;" horiz-adv-x="561" 
d="M151 613q0 19 1 25q88 11 131 11t73 -10q24 -188 167 -581l37 -3q2 -22 2 -30.5t-3 -25.5q-28 1 -87 1t-82 -1q-3 15 -3 28.5t2 27.5l35 3q-5 24 -16 69.5t-12 50.5q-57 3 -123.5 3t-124.5 -4l-28 -119l38 -3q2 -22 2 -30.5t-3 -25.5q-24 1 -78.5 1t-76.5 -1
q-3 15 -3 28.5t2 27.5l35 3q120 329 158 521l-40 3q-3 12 -3 31zM166 247q34 -1 102 -1t110 3q-47 178 -99 329h-6q-59 -143 -107 -331zM409 704q-68 21 -127 52q-87 -40 -135 -52q-12 18 -15 39q21 14 39 23t32.5 18t21.5 14t19 13q14 10 38 34q44 -42 143 -103
q-3 -21 -16 -38z" />
    <glyph glyph-name="Atilde" unicode="&#xc3;" horiz-adv-x="561" 
d="M151 613q0 19 1 25q88 11 131 11t73 -10q24 -188 167 -581l37 -3q2 -22 2 -30.5t-3 -25.5q-28 1 -87 1t-82 -1q-3 15 -3 28.5t2 27.5l35 3q-5 24 -16 69.5t-12 50.5q-57 3 -123.5 3t-124.5 -4l-28 -119l38 -3q2 -22 2 -30.5t-3 -25.5q-24 1 -78.5 1t-76.5 -1
q-3 15 -3 28.5t2 27.5l35 3q120 329 158 521l-40 3q-3 12 -3 31zM166 247q34 -1 102 -1t110 3q-47 178 -99 329h-6q-59 -143 -107 -331zM379 724q-30 -20 -55 -20t-56.5 16.5t-49.5 16.5q-36 0 -54 -32q-27 11 -32 32q15 26 45 46t56.5 20t58 -16.5t46.5 -16.5q36 0 54 32
q27 -11 32 -32q-15 -26 -45 -46z" />
    <glyph glyph-name="Adieresis" unicode="&#xc4;" horiz-adv-x="561" 
d="M151 613q0 19 1 25q88 11 131 11t73 -10q24 -188 167 -581l37 -3q2 -22 2 -30.5t-3 -25.5q-28 1 -87 1t-82 -1q-3 15 -3 28.5t2 27.5l35 3q-5 24 -16 69.5t-12 50.5q-57 3 -123.5 3t-124.5 -4l-28 -119l38 -3q2 -22 2 -30.5t-3 -25.5q-24 1 -78.5 1t-76.5 -1
q-3 15 -3 28.5t2 27.5l35 3q120 329 158 521l-40 3q-3 12 -3 31zM166 247q34 -1 102 -1t110 3q-47 178 -99 329h-6q-59 -143 -107 -331zM257 759q0 -55 -58 -55q-45 0 -45 46q0 56 58 56q45 0 45 -47zM407 759q0 -55 -58 -55q-45 0 -45 46q0 56 58 56q45 0 45 -47z" />
    <glyph glyph-name="Aring" unicode="&#xc5;" horiz-adv-x="561" 
d="M151 613q0 19 1 25q88 11 131 11t73 -10q24 -188 167 -581l37 -3q2 -22 2 -30.5t-3 -25.5q-28 1 -87 1t-82 -1q-3 15 -3 28.5t2 27.5l35 3q-5 24 -16 69.5t-12 50.5q-57 3 -123.5 3t-124.5 -4l-28 -119l38 -3q2 -22 2 -30.5t-3 -25.5q-24 1 -78.5 1t-76.5 -1
q-3 15 -3 28.5t2 27.5l35 3q120 329 158 521l-40 3q-3 12 -3 31zM166 247q34 -1 102 -1t110 3q-47 178 -99 329h-6q-59 -143 -107 -331zM367 783q0 -79 -94 -79q-43 0 -61.5 19t-18.5 58q0 79 94 79q44 0 62 -18t18 -59zM285 823q-53 0 -53 -40q0 -23 10 -32.5t33 -9.5
q53 0 53 43q0 21 -10 30t-33 9z" />
    <glyph glyph-name="AE" unicode="&#xc6;" horiz-adv-x="776" 
d="M475 76q52 -4 91 -4t87 6l3 68q16 3 30 3t26 -1q3 -76 9 -148l-5 -5q-45 5 -280 5q-17 0 -49 -4q0 81 -8 183q-82 2 -120.5 2t-92.5 -4l-41 -119l38 -3q2 -16 2 -27.5t-3 -28.5q-36 1 -82.5 1t-77.5 -1q-3 15 -3 26.5t2 29.5l36 3q151 330 207 523l-35 3q-2 18 -2 29.5
t3 26.5q21 -1 51 -1h185q204 0 245 9l5 -5q-7 -77 -9 -142q-12 -1 -25.5 -1t-30.5 3l-3 68q-60 3 -118.5 3t-87.5 -3q1 -63 15 -206q20 -1 67 -1t107 5l3 37q16 2 28 2t28 -3q-1 -35 -1 -72.5t1 -71.5q-15 -3 -26.5 -3t-29.5 2l-3 35q-38 2 -83 2t-83 -2q15 -146 30 -219z
M374 248l-6 62q-21 173 -39 268h-7q-82 -198 -130 -331q42 -1 99.5 -1t82.5 2z" />
    <glyph glyph-name="Ccedilla" unicode="&#xc7;" horiz-adv-x="536" 
d="M395 469q-17 19 -17 49.5t13 47.5q-32 30 -88 30q-82 0 -124 -68.5t-42 -201.5q0 -267 166 -267q40 0 81.5 19.5t70.5 51.5q31 -25 40 -79q-89 -66 -192 -66h-10l2 -39q101 -4 101 -70q0 -86 -111 -86q-45 0 -74 12q-1 3 -1 18.5t13 35.5q22 -20 63.5 -20t41.5 39
q0 30 -45 30q-20 0 -48 -4l15 88q-102 14 -148.5 95.5t-46.5 243t63 244.5t185 83q75 0 133.5 -39.5t58.5 -102.5t-52 -63q-31 0 -48 19z" />
    <glyph glyph-name="Egrave" unicode="&#xc8;" horiz-adv-x="519" 
d="M369 406q22 2 30 2t26 -3q-1 -31 -1 -80t1 -64q-15 -3 -29 -3t-27 2l-3 35q-54 2 -89 2t-89 -2q0 -131 7 -219q35 -3 99.5 -3t101.5 5l3 68q17 3 31.5 3t24.5 -1q1 -78 9 -148l-5 -5q-49 5 -214.5 5t-174.5 -1q-3 15 -3 28.5t2 27.5l35 3q9 155 9 280.5t-12 242.5l-34 3
q-2 13 -2 27t3 29q25 -1 183 -1t203 9l5 -5q-8 -88 -9 -142q-10 -1 -25 -1t-31 3l-3 68q-51 3 -106 3t-91 -3q-6 -63 -6 -206q16 -1 65 -1t113 4zM357 704q-63 13 -180 55q0 33 6.5 48.5t26.5 37.5q38 -32 65.5 -47.5t34 -19.5t31.5 -18t32 -18q-3 -21 -16 -38z" />
    <glyph glyph-name="Eacute" unicode="&#xc9;" horiz-adv-x="519" 
d="M369 406q22 2 30 2t26 -3q-1 -31 -1 -80t1 -64q-15 -3 -29 -3t-27 2l-3 35q-54 2 -89 2t-89 -2q0 -131 7 -219q35 -3 99.5 -3t101.5 5l3 68q17 3 31.5 3t24.5 -1q1 -78 9 -148l-5 -5q-49 5 -214.5 5t-174.5 -1q-3 15 -3 28.5t2 27.5l35 3q9 155 9 280.5t-12 242.5l-34 3
q-2 13 -2 27t3 29q25 -1 183 -1t203 9l5 -5q-8 -88 -9 -142q-10 -1 -25 -1t-31 3l-3 68q-51 3 -106 3t-91 -3q-6 -63 -6 -206q16 -1 65 -1t113 4zM406 768q0 -12 -1 -18q-123 -37 -182 -46q-13 17 -15 39q21 11 50.5 26t44.5 23q44 24 73 46q30 -33 30 -70z" />
    <glyph glyph-name="Ecircumflex" unicode="&#xca;" horiz-adv-x="519" 
d="M369 406q22 2 30 2t26 -3q-1 -31 -1 -80t1 -64q-15 -3 -29 -3t-27 2l-3 35q-54 2 -89 2t-89 -2q0 -131 7 -219q35 -3 99.5 -3t101.5 5l3 68q17 3 31.5 3t24.5 -1q1 -78 9 -148l-5 -5q-49 5 -214.5 5t-174.5 -1q-3 15 -3 28.5t2 27.5l35 3q9 155 9 280.5t-12 242.5l-34 3
q-2 13 -2 27t3 29q25 -1 183 -1t203 9l5 -5q-8 -88 -9 -142q-10 -1 -25 -1t-31 3l-3 68q-51 3 -106 3t-91 -3q-6 -63 -6 -206q16 -1 65 -1t113 4zM412 704q-68 21 -127 52q-87 -40 -135 -52q-12 18 -15 39q21 14 39 23t32.5 18t21.5 14t18 13q15 10 39 34q44 -42 143 -103
q-3 -21 -16 -38z" />
    <glyph glyph-name="Edieresis" unicode="&#xcb;" horiz-adv-x="519" 
d="M369 406q22 2 30 2t26 -3q-1 -31 -1 -80t1 -64q-15 -3 -29 -3t-27 2l-3 35q-54 2 -89 2t-89 -2q0 -131 7 -219q35 -3 99.5 -3t101.5 5l3 68q17 3 31.5 3t24.5 -1q1 -78 9 -148l-5 -5q-49 5 -214.5 5t-174.5 -1q-3 15 -3 28.5t2 27.5l35 3q9 155 9 280.5t-12 242.5l-34 3
q-2 13 -2 27t3 29q25 -1 183 -1t203 9l5 -5q-8 -88 -9 -142q-10 -1 -25 -1t-31 3l-3 68q-51 3 -106 3t-91 -3q-6 -63 -6 -206q16 -1 65 -1t113 4zM256 759q0 -55 -58 -55q-45 0 -45 46q0 56 58 56q45 0 45 -47zM406 759q0 -55 -58 -55q-45 0 -45 46q0 56 58 56q45 0 45 -47z
" />
    <glyph glyph-name="Igrave" unicode="&#xcc;" horiz-adv-x="317" 
d="M202 584q-7 -81 -7 -251t9 -275l36 -3q2 -16 2 -27.5t-3 -28.5q-35 1 -81 1t-80 -1q-3 15 -3 26.5t2 29.5l35 3q8 108 8 275.5t-9 250.5l-34 3q-2 16 -2 27.5t3 28.5q35 -1 81 -1t80 1q3 -15 3 -26.5t-2 -29.5zM240 704q-63 13 -180 55q0 33 6.5 48.5t26.5 37.5
q38 -32 65.5 -47.5t34 -19.5t31.5 -18t32 -18q-3 -21 -16 -38z" />
    <glyph glyph-name="Iacute" unicode="&#xcd;" horiz-adv-x="317" 
d="M202 584q-7 -81 -7 -251t9 -275l36 -3q2 -16 2 -27.5t-3 -28.5q-35 1 -81 1t-80 -1q-3 15 -3 26.5t2 29.5l35 3q8 108 8 275.5t-9 250.5l-34 3q-2 16 -2 27.5t3 28.5q35 -1 81 -1t80 1q3 -15 3 -26.5t-2 -29.5zM284 768q0 -12 -1 -18q-123 -37 -182 -46q-13 17 -15 39
q21 11 50.5 26t44.5 23q44 24 73 46q30 -33 30 -70z" />
    <glyph glyph-name="Icircumflex" unicode="&#xce;" horiz-adv-x="317" 
d="M202 584q-7 -81 -7 -251t9 -275l36 -3q2 -16 2 -27.5t-3 -28.5q-35 1 -81 1t-80 -1q-3 15 -3 26.5t2 29.5l35 3q8 108 8 275.5t-9 250.5l-34 3q-2 16 -2 27.5t3 28.5q35 -1 81 -1t80 1q3 -15 3 -26.5t-2 -29.5zM288 704q-68 21 -127 52q-87 -40 -135 -52q-12 18 -15 39
q21 14 39 23t32.5 18t21.5 14t18 13q15 10 39 34q44 -42 143 -103q-3 -21 -16 -38z" />
    <glyph glyph-name="Idieresis" unicode="&#xcf;" horiz-adv-x="317" 
d="M202 584q-7 -81 -7 -251t9 -275l36 -3q2 -16 2 -27.5t-3 -28.5q-35 1 -81 1t-80 -1q-3 15 -3 26.5t2 29.5l35 3q8 108 8 275.5t-9 250.5l-34 3q-2 16 -2 27.5t3 28.5q35 -1 81 -1t80 1q3 -15 3 -26.5t-2 -29.5zM134 759q0 -55 -58 -55q-45 0 -45 46q0 56 58 56
q45 0 45 -47zM284 759q0 -55 -58 -55q-45 0 -45 46q0 56 58 56q45 0 45 -47z" />
    <glyph glyph-name="Eth" unicode="&#xd0;" horiz-adv-x="616" 
d="M298 -15q-56 0 -101.5 5.5t-131.5 11.5q-1 5 -1 23.5t3 32.5l40 3q8 96 9 230q-20 -2 -68 -8q-3 15 -3 39.5t7 48.5q31 -4 64 -6q-3 152 -10 214l-39 3q-3 12 -3 31.5t1 24.5q65 1 121 9t112 8q127 0 195 -85.5t68 -244.5q0 -340 -263 -340zM298 56q86 0 131.5 69
t45.5 199.5t-46 201t-132 70.5q-48 0 -99 -19q-7 -81 -7 -214q76 0 150 13q3 -15 3 -39.5t-7 -48.5q-57 7 -129 7h-17q0 -138 8 -218q47 -21 99 -21z" />
    <glyph glyph-name="Ntilde" unicode="&#xd1;" horiz-adv-x="650" 
d="M483 145q3 84 3 220t-9 219l-37 3q-2 16 -2 27.5t3 28.5q32 -1 73.5 -1t72.5 1q3 -15 3 -26.5t-2 -29.5l-35 -3q-7 -81 -7 -304.5t17 -277.5q-30 -10 -43.5 -10t-47.5 2q-7 31 -59 112.5t-129.5 194.5t-111.5 169q-1 -43 -1 -175t9 -237l37 -3q2 -16 2 -27.5t-3 -28.5
q-32 1 -74 1t-73 -1q-3 15 -3 26.5t2 29.5l35 3q8 108 8 273.5t-9 247.5l-39 3q-3 14 -3 31t1 25q85 2 126 5q19 -72 108 -216t188 -282zM424 724q-30 -20 -55 -20t-56.5 16.5t-49.5 16.5q-36 0 -54 -32q-27 11 -32 32q15 26 45 46t56.5 20t58 -16.5t46.5 -16.5q36 0 54 32
q27 -11 32 -32q-15 -26 -45 -46z" />
    <glyph glyph-name="Ograve" unicode="&#xd2;" 
d="M55 327q0 328 245.5 328t245.5 -328q0 -60 -4.5 -105t-20 -92t-41.5 -77t-71.5 -49t-108 -19t-108 19t-71.5 49t-41.5 77t-20 92t-4.5 105zM216 81q34 -22 84.5 -22t85 22t51.5 63q30 71 30 182q0 270 -166.5 270t-166.5 -270q0 -193 82 -245zM382 704q-63 13 -180 55
q0 33 6.5 48.5t26.5 37.5q38 -32 65.5 -47.5t34 -19.5t31.5 -18t32 -18q-3 -21 -16 -38z" />
    <glyph glyph-name="Oacute" unicode="&#xd3;" 
d="M55 327q0 328 245.5 328t245.5 -328q0 -60 -4.5 -105t-20 -92t-41.5 -77t-71.5 -49t-108 -19t-108 19t-71.5 49t-41.5 77t-20 92t-4.5 105zM216 81q34 -22 84.5 -22t85 22t51.5 63q30 71 30 182q0 270 -166.5 270t-166.5 -270q0 -193 82 -245zM427 768q0 -12 -1 -18
q-123 -37 -182 -46q-13 17 -15 39q21 11 50.5 26t44.5 23q44 24 73 46q30 -33 30 -70z" />
    <glyph glyph-name="Ocircumflex" unicode="&#xd4;" 
d="M55 327q0 328 245.5 328t245.5 -328q0 -60 -4.5 -105t-20 -92t-41.5 -77t-71.5 -49t-108 -19t-108 19t-71.5 49t-41.5 77t-20 92t-4.5 105zM216 81q34 -22 84.5 -22t85 22t51.5 63q30 71 30 182q0 270 -166.5 270t-166.5 -270q0 -193 82 -245zM427 704q-68 21 -127 52
q-87 -40 -135 -52q-12 18 -15 39q21 14 39 23t32.5 18t21.5 14t19 13q14 10 38 34q44 -42 143 -103q-3 -21 -16 -38z" />
    <glyph glyph-name="Otilde" unicode="&#xd5;" 
d="M55 327q0 328 245.5 328t245.5 -328q0 -60 -4.5 -105t-20 -92t-41.5 -77t-71.5 -49t-108 -19t-108 19t-71.5 49t-41.5 77t-20 92t-4.5 105zM216 81q34 -22 84.5 -22t85 22t51.5 63q30 71 30 182q0 270 -166.5 270t-166.5 -270q0 -193 82 -245zM401 724q-30 -20 -55 -20
t-56.5 16.5t-49.5 16.5q-36 0 -54 -32q-27 11 -32 32q15 26 45 46t56.5 20t58 -16.5t46.5 -16.5q36 0 54 32q27 -11 32 -32q-15 -26 -45 -46z" />
    <glyph glyph-name="Odieresis" unicode="&#xd6;" 
d="M55 327q0 328 245.5 328t245.5 -328q0 -60 -4.5 -105t-20 -92t-41.5 -77t-71.5 -49t-108 -19t-108 19t-71.5 49t-41.5 77t-20 92t-4.5 105zM216 81q34 -22 84.5 -22t85 22t51.5 63q30 71 30 182q0 270 -166.5 270t-166.5 -270q0 -193 82 -245zM279 759q0 -55 -58 -55
q-45 0 -45 46q0 56 58 56q45 0 45 -47zM429 759q0 -55 -58 -55q-45 0 -45 46q0 56 58 56q45 0 45 -47z" />
    <glyph glyph-name="multiply" unicode="&#xd7;" 
d="M104 465q20 38 59 65q9 -15 59 -71.5t78 -85.5q25 25 76.5 83.5t61.5 73.5q39 -27 59 -65q-62 -51 -151 -138q101 -99 151 -137q-13 -24 -27.5 -38t-31.5 -27q-10 15 -61.5 73t-76.5 83q-29 -30 -78.5 -85.5t-58.5 -70.5q-39 28 -59 65q46 35 150 137q-77 77 -150 138z
" />
    <glyph glyph-name="Oslash" unicode="&#xd8;" 
d="M195 -84q-32 0 -54 21l27 78q-67 38 -90 116.5t-23 195.5q0 328 245 328q37 0 64 -7l20 74q16 2 25 2q25 0 51 -20l-30 -81q116 -71 116 -296q0 -60 -4.5 -105t-20 -92t-41.5 -77t-71.5 -49t-95 -19t-79.5 6l-19 -72q-11 -3 -20 -3zM134 326q0 -169 63 -230
q78 231 151 493q-26 7 -48 7q-166 0 -166 -270zM300 59q102 0 137 85q30 71 30 182q0 161 -62 227q-79 -231 -150 -489q22 -5 45 -5z" />
    <glyph glyph-name="Ugrave" unicode="&#xd9;" horiz-adv-x="644" 
d="M483 276q0 216 -10 308l-35 3q-2 16 -2 27.5t3 28.5q32 -1 74 -1t73 1q3 -15 3 -26.5t-2 -29.5l-33 -3q-8 -98 -8 -232.5t-4 -175t-17.5 -79.5t-37.5 -62q-52 -50 -162 -50q-141 0 -185 79q-22 42 -29.5 90t-7.5 193t-10 237l-36 3q-2 16 -2 27.5t3 28.5q35 -1 81 -1
t80 1q3 -15 3 -26.5t-2 -29.5l-34 -3q-8 -98 -8 -308q0 -112 31 -164.5t123 -52.5t121.5 52.5t29.5 164.5zM375 704q-63 13 -180 55q0 33 6.5 48.5t26.5 37.5q38 -32 65.5 -47.5t34 -19.5t31.5 -18t32 -18q-3 -21 -16 -38z" />
    <glyph glyph-name="Uacute" unicode="&#xda;" horiz-adv-x="644" 
d="M483 276q0 216 -10 308l-35 3q-2 16 -2 27.5t3 28.5q32 -1 74 -1t73 1q3 -15 3 -26.5t-2 -29.5l-33 -3q-8 -98 -8 -232.5t-4 -175t-17.5 -79.5t-37.5 -62q-52 -50 -162 -50q-141 0 -185 79q-22 42 -29.5 90t-7.5 193t-10 237l-36 3q-2 16 -2 27.5t3 28.5q35 -1 81 -1
t80 1q3 -15 3 -26.5t-2 -29.5l-34 -3q-8 -98 -8 -308q0 -112 31 -164.5t123 -52.5t121.5 52.5t29.5 164.5zM443 768q0 -12 -1 -18q-123 -37 -182 -46q-13 17 -15 39q21 11 50.5 26t44.5 23q44 24 73 46q30 -33 30 -70z" />
    <glyph glyph-name="Ucircumflex" unicode="&#xdb;" horiz-adv-x="644" 
d="M483 276q0 216 -10 308l-35 3q-2 16 -2 27.5t3 28.5q32 -1 74 -1t73 1q3 -15 3 -26.5t-2 -29.5l-33 -3q-8 -98 -8 -232.5t-4 -175t-17.5 -79.5t-37.5 -62q-52 -50 -162 -50q-141 0 -185 79q-22 42 -29.5 90t-7.5 193t-10 237l-36 3q-2 16 -2 27.5t3 28.5q35 -1 81 -1
t80 1q3 -15 3 -26.5t-2 -29.5l-34 -3q-8 -98 -8 -308q0 -112 31 -164.5t123 -52.5t121.5 52.5t29.5 164.5zM455 704q-68 21 -127 52q-87 -40 -135 -52q-12 18 -15 39q21 14 39 23t32.5 18t21.5 14t19 13q14 10 38 34q44 -42 143 -103q-3 -21 -16 -38z" />
    <glyph glyph-name="Udieresis" unicode="&#xdc;" horiz-adv-x="644" 
d="M483 276q0 216 -10 308l-35 3q-2 16 -2 27.5t3 28.5q32 -1 74 -1t73 1q3 -15 3 -26.5t-2 -29.5l-33 -3q-8 -98 -8 -232.5t-4 -175t-17.5 -79.5t-37.5 -62q-52 -50 -162 -50q-141 0 -185 79q-22 42 -29.5 90t-7.5 193t-10 237l-36 3q-2 16 -2 27.5t3 28.5q35 -1 81 -1
t80 1q3 -15 3 -26.5t-2 -29.5l-34 -3q-8 -98 -8 -308q0 -112 31 -164.5t123 -52.5t121.5 52.5t29.5 164.5zM310 759q0 -55 -58 -55q-45 0 -45 46q0 56 58 56q45 0 45 -47zM460 759q0 -55 -58 -55q-45 0 -45 46q0 56 58 56q45 0 45 -47z" />
    <glyph glyph-name="Yacute" unicode="&#xdd;" horiz-adv-x="495" 
d="M328 587q-2 16 -2 27.5t3 28.5q32 -1 79.5 -1t82.5 1q3 -17 3 -31.5t-2 -24.5l-35 -3q-137 -295 -162 -390q3 -76 8 -136l36 -3q2 -16 2 -27.5t-3 -28.5q-35 1 -81 1t-80 -1q-3 15 -3 26.5t2 29.5l35 3q6 87 7 138q-26 86 -140 314q-32 62 -38 74l-37 3q-2 16 -2 27.5
t3 28.5q35 -1 86.5 -1t85.5 1q3 -15 3 -26.5t-2 -29.5l-36 -3q19 -71 63 -167t56 -124h4q27 52 57 135.5t44 155.5zM395 768q0 -12 -1 -18q-123 -37 -182 -46q-13 17 -15 39q21 11 50.5 26t44.5 23q44 24 73 46q30 -33 30 -70z" />
    <glyph glyph-name="Thorn" unicode="&#xde;" horiz-adv-x="522" 
d="M240 231q29 -29 78 -29t73 40.5t24 91.5q0 134 -132 134q-44 0 -101 -24v-106q0 -175 9 -280l36 -3q2 -16 2 -27.5t-3 -28.5q-35 1 -81 1t-80 -1q-3 15 -3 26.5t2 29.5l35 3q8 108 8 275.5t-9 250.5l-34 3q-2 16 -2 27.5t3 28.5q35 -1 81 -1t80 1q3 -15 3 -26.5t-2 -29.5
l-38 -3q-2 -23 -4 -65q43 6 99 6q118 0 168 -49.5t50 -139t-50.5 -145.5t-153.5 -56q-40 0 -79 15q0 27 7 50t14 31z" />
    <glyph glyph-name="germandbls" unicode="&#xdf;" horiz-adv-x="537" 
d="M89 408l-57 -1q-6 12 -6 29.5t2 25.5h61q3 60 19 105.5t56 76.5t109 31t119 -41.5t50 -110.5t-31.5 -109t-78.5 -55q180 -38 180 -186q0 -138 -94 -176q-29 -12 -76 -12t-88 30t-41 86v4q0 54 47 54q30 0 44.5 -18.5t14.5 -41t-7 -38.5q12 -13 39 -13q74 0 74 125
q0 94 -71 126q-29 13 -60.5 17t-34.5 5q-6 12 -6 29.5t2 25.5q104 21 104 131q0 47 -23.5 77.5t-62.5 30.5t-60.5 -13.5t-30.5 -39.5q-17 -44 -17 -110v-174q0 -181 19 -278h-58q-43 0 -77 -1q-3 15 -3 26.5t2 29.5l34 3q10 134 10 209z" />
    <glyph glyph-name="agrave" unicode="&#xe0;" horiz-adv-x="473" 
d="M388 345l-4 -144q0 -68 8 -133l37 -3q2 -16 2 -29.5t-3 -28.5q-29 -1 -113 -10q-7 19 -11 47q-78 -59 -134.5 -59t-88 36.5t-31.5 104t42.5 106.5t107 39t110.5 -24q1 11 1 36q0 74 -20.5 106.5t-62.5 32.5t-61 -16q8 -16 8 -40t-15.5 -41.5t-43.5 -17.5q-47 0 -47 55.5
t42 85.5t118 30t117.5 -35.5t41.5 -97.5zM306 184q-41 35 -88 35q-90 0 -90 -80q0 -82 71 -82q26 0 55.5 13.5t46.5 33.5q5 60 5 80zM277 528q-124 51 -184 75q1 28 10 44.5t30 34.5q46 -39 95.5 -71.5t68.5 -45.5q-5 -21 -20 -37z" />
    <glyph glyph-name="aacute" unicode="&#xe1;" horiz-adv-x="473" 
d="M388 345l-4 -144q0 -68 8 -133l37 -3q2 -16 2 -29.5t-3 -28.5q-29 -1 -113 -10q-7 19 -11 47q-78 -59 -134.5 -59t-88 36.5t-31.5 104t42.5 106.5t107 39t110.5 -24q1 11 1 36q0 74 -20.5 106.5t-62.5 32.5t-61 -16q8 -16 8 -40t-15.5 -41.5t-43.5 -17.5q-47 0 -47 55.5
t42 85.5t118 30t117.5 -35.5t41.5 -97.5zM306 184q-41 35 -88 35q-90 0 -90 -80q0 -82 71 -82q26 0 55.5 13.5t46.5 33.5q5 60 5 80zM172 528q-15 16 -20 37q19 13 48 32t42 29q41 28 74 56q21 -18 30 -34.5t10 -44.5q-60 -24 -184 -75z" />
    <glyph glyph-name="acircumflex" unicode="&#xe2;" horiz-adv-x="473" 
d="M388 345l-4 -144q0 -68 8 -133l37 -3q2 -16 2 -29.5t-3 -28.5q-29 -1 -113 -10q-7 19 -11 47q-78 -59 -134.5 -59t-88 36.5t-31.5 104t42.5 106.5t107 39t110.5 -24q1 11 1 36q0 74 -20.5 106.5t-62.5 32.5t-61 -16q8 -16 8 -40t-15.5 -41.5t-43.5 -17.5q-47 0 -47 55.5
t42 85.5t118 30t117.5 -35.5t41.5 -97.5zM306 184q-41 35 -88 35q-90 0 -90 -80q0 -82 71 -82q26 0 55.5 13.5t46.5 33.5q5 60 5 80zM339 528l-114 63q-33 -18 -114 -63q-16 18 -20 37q18 15 47 39q61 51 87 78q26 -27 71 -64.5l63 -52.5q-5 -21 -20 -37z" />
    <glyph glyph-name="atilde" unicode="&#xe3;" horiz-adv-x="473" 
d="M388 345l-4 -144q0 -68 8 -133l37 -3q2 -16 2 -29.5t-3 -28.5q-29 -1 -113 -10q-7 19 -11 47q-78 -59 -134.5 -59t-88 36.5t-31.5 104t42.5 106.5t107 39t110.5 -24q1 11 1 36q0 74 -20.5 106.5t-62.5 32.5t-61 -16q8 -16 8 -40t-15.5 -41.5t-43.5 -17.5q-47 0 -47 55.5
t42 85.5t118 30t117.5 -35.5t41.5 -97.5zM306 184q-41 35 -88 35q-90 0 -90 -80q0 -82 71 -82q26 0 55.5 13.5t46.5 33.5q5 60 5 80zM125 620.5q29 22.5 55 22.5t57.5 -16.5t48.5 -16.5q25 0 50 40q27 -12 34 -33q-14 -27 -43 -50t-55.5 -23t-58 16.5t-53 16.5t-46.5 -40
q-25 12 -32 33q14 28 43 50.5z" />
    <glyph glyph-name="adieresis" unicode="&#xe4;" horiz-adv-x="473" 
d="M388 345l-4 -144q0 -68 8 -133l37 -3q2 -16 2 -29.5t-3 -28.5q-29 -1 -113 -10q-7 19 -11 47q-78 -59 -134.5 -59t-88 36.5t-31.5 104t42.5 106.5t107 39t110.5 -24q1 11 1 36q0 74 -20.5 106.5t-62.5 32.5t-61 -16q8 -16 8 -40t-15.5 -41.5t-43.5 -17.5q-47 0 -47 55.5
t42 85.5t118 30t117.5 -35.5t41.5 -97.5zM306 184q-41 35 -88 35q-90 0 -90 -80q0 -82 71 -82q26 0 55.5 13.5t46.5 33.5q5 60 5 80zM202 599q0 -55 -58 -55q-45 0 -45 46q0 56 58 56q45 0 45 -47zM352 599q0 -55 -58 -55q-45 0 -45 46q0 56 58 56q45 0 45 -47z" />
    <glyph glyph-name="aring" unicode="&#xe5;" horiz-adv-x="473" 
d="M388 345l-4 -144q0 -68 8 -133l37 -3q2 -16 2 -29.5t-3 -28.5q-29 -1 -113 -10q-7 19 -11 47q-78 -59 -134.5 -59t-88 36.5t-31.5 104t42.5 106.5t107 39t110.5 -24q1 11 1 36q0 74 -20.5 106.5t-62.5 32.5t-61 -16q8 -16 8 -40t-15.5 -41.5t-43.5 -17.5q-47 0 -47 55.5
t42 85.5t118 30t117.5 -35.5t41.5 -97.5zM306 184q-41 35 -88 35q-90 0 -90 -80q0 -82 71 -82q26 0 55.5 13.5t46.5 33.5q5 60 5 80zM297 673.5q17 -19.5 17 -60t-21.5 -63.5t-67.5 -23q-75 0 -75 83t89 83q41 0 58 -19.5zM237 656q-48 0 -48 -45q0 -26 9 -36.5t29 -10.5
q48 0 48 48q0 44 -38 44z" />
    <glyph glyph-name="ae" unicode="&#xe6;" horiz-adv-x="716" 
d="M167 406q8 -14 8 -38t-14.5 -42.5t-44.5 -18.5q-47 0 -47 54q0 117 168 117q88 0 127 -68q54 68 134 68t123.5 -44.5t43.5 -114.5q0 -35 -12 -73q-75 -24 -149 -24t-112 5q0 -120 52 -154q24 -16 61 -16q60 0 124 62q29 -30 37 -79q-80 -56 -169 -56q-110 0 -153 82
q-45 -44 -83.5 -62.5t-94 -18.5t-86 37.5t-30.5 107t45.5 105.5t107.5 36t107 -24q1 20 1 41.5t-0.5 35.5t-5 35.5t-13.5 32.5q-21 30 -63.5 30t-61.5 -16zM199 57q68 0 123 69q-4 17 -8 51q-47 42 -105 42q-36 0 -58.5 -19.5t-22.5 -60.5q0 -82 71 -82zM497 422
q-94 0 -104 -137q42 -5 97 -5t86 10q4 36 4 37q0 39 -20 67t-63 28z" />
    <glyph glyph-name="ccedilla" unicode="&#xe7;" horiz-adv-x="430" 
d="M293.5 324.5q-15.5 17.5 -15.5 43t7 38.5q-22 17 -52 17q-106 0 -106 -188q0 -86 27 -132t76.5 -46t122.5 62q29 -30 37 -79q-78 -52 -155 -55l2 -39q101 -4 101 -70q0 -86 -111 -86q-45 0 -74 12q-1 3 -1 18.5t13 35.5q22 -20 63.5 -20t41.5 39q0 30 -45 30
q-20 0 -48 -4l15 86q-76 10 -111.5 73t-35.5 180t48 177.5t136 60.5q69 0 112 -32.5t43 -85.5t-47 -53q-28 0 -43.5 17.5z" />
    <glyph glyph-name="egrave" unicode="&#xe8;" horiz-adv-x="451" 
d="M218 222q-49 0 -91 5q2 -170 113 -170q56 0 124 62q29 -30 37 -79q-82 -55 -174 -55t-137 63.5t-45 186.5t50.5 183t143.5 60q69 0 114 -42t45.5 -103t-10.5 -87q-75 -24 -170 -24zM232 422q-93 0 -104 -137q45 -5 99 -5t84 10q4 25 4 37q0 44 -22.5 69.5t-60.5 25.5z
M272 528q-124 51 -184 75q1 28 10 44.5t30 34.5q46 -39 95.5 -71.5t68.5 -45.5q-5 -21 -20 -37z" />
    <glyph glyph-name="eacute" unicode="&#xe9;" horiz-adv-x="451" 
d="M218 222q-49 0 -91 5q2 -170 113 -170q56 0 124 62q29 -30 37 -79q-82 -55 -174 -55t-137 63.5t-45 186.5t50.5 183t143.5 60q69 0 114 -42t45.5 -103t-10.5 -87q-75 -24 -170 -24zM232 422q-93 0 -104 -137q45 -5 99 -5t84 10q4 25 4 37q0 44 -22.5 69.5t-60.5 25.5z
M169 528q-15 16 -20 37q19 13 48 32t43 29q40 28 73 56q21 -18 30 -34.5t10 -44.5q-60 -24 -184 -75z" />
    <glyph glyph-name="ecircumflex" unicode="&#xea;" horiz-adv-x="451" 
d="M218 222q-49 0 -91 5q2 -170 113 -170q56 0 124 62q29 -30 37 -79q-82 -55 -174 -55t-137 63.5t-45 186.5t50.5 183t143.5 60q69 0 114 -42t45.5 -103t-10.5 -87q-75 -24 -170 -24zM232 422q-93 0 -104 -137q45 -5 99 -5t84 10q4 25 4 37q0 44 -22.5 69.5t-60.5 25.5z
M350 528l-114 63q-33 -18 -114 -63q-16 18 -20 37q18 15 48 39q60 51 86 78q26 -27 71 -64.5l63 -52.5q-5 -21 -20 -37z" />
    <glyph glyph-name="edieresis" unicode="&#xeb;" horiz-adv-x="451" 
d="M218 222q-49 0 -91 5q2 -170 113 -170q56 0 124 62q29 -30 37 -79q-82 -55 -174 -55t-137 63.5t-45 186.5t50.5 183t143.5 60q69 0 114 -42t45.5 -103t-10.5 -87q-75 -24 -170 -24zM232 422q-93 0 -104 -137q45 -5 99 -5t84 10q4 25 4 37q0 44 -22.5 69.5t-60.5 25.5z
M217 607q0 -55 -58 -55q-45 0 -45 46q0 56 58 56q45 0 45 -47zM367 607q0 -55 -58 -55q-45 0 -45 46q0 56 58 56q45 0 45 -47z" />
    <glyph glyph-name="igrave" unicode="&#xec;" horiz-adv-x="263" 
d="M91 58q9 98 9 179.5t-8 169.5l-37 3q-3 17 -3 32.5t1 23.5q58 2 124 9l5 -5q-9 -59 -9 -198t9 -214l37 -3q2 -16 2 -27.5t-3 -28.5q-35 1 -81 1t-80 -1q-3 15 -3 26.5t2 29.5zM198 528q-124 51 -184 75q1 28 10 44.5t30 34.5q46 -39 95.5 -71.5t68.5 -45.5
q-5 -21 -20 -37z" />
    <glyph glyph-name="iacute" unicode="&#xed;" horiz-adv-x="263" 
d="M84 528q-15 16 -20 37q19 13 48 32t42 29q41 28 74 56q21 -18 30 -34.5t10 -44.5q-60 -24 -184 -75zM91 58q9 98 9 179.5t-8 169.5l-37 3q-3 17 -3 32.5t1 23.5q58 2 124 9l5 -5q-9 -59 -9 -198t9 -214l37 -3q2 -16 2 -27.5t-3 -28.5q-35 1 -81 1t-80 -1q-3 15 -3 26.5
t2 29.5z" />
    <glyph glyph-name="icircumflex" unicode="&#xee;" horiz-adv-x="263" 
d="M91 58q9 98 9 179.5t-8 169.5l-37 3q-3 17 -3 32.5t1 23.5q58 2 124 9l5 -5q-9 -59 -9 -198t9 -214l37 -3q2 -16 2 -27.5t-3 -28.5q-35 1 -81 1t-80 -1q-3 15 -3 26.5t2 29.5zM250 528l-114 63q-33 -18 -114 -63q-16 18 -20 37q18 15 48 39q60 51 86 78q26 -27 71 -64.5
l63 -52.5q-5 -21 -20 -37z" />
    <glyph glyph-name="idieresis" unicode="&#xef;" horiz-adv-x="263" 
d="M91 58q9 98 9 179.5t-8 169.5l-37 3q-3 17 -3 32.5t1 23.5q58 2 124 9l5 -5q-9 -59 -9 -198t9 -214l37 -3q2 -16 2 -27.5t-3 -28.5q-35 1 -81 1t-80 -1q-3 15 -3 26.5t2 29.5zM112 607q0 -55 -58 -55q-45 0 -45 46q0 56 58 56q45 0 45 -47zM262 607q0 -55 -58 -55
q-45 0 -45 46q0 56 58 56q45 0 45 -47z" />
    <glyph glyph-name="eth" unicode="&#xf0;" horiz-adv-x="486" 
d="M431 246q0 -135 -45.5 -198t-142.5 -63t-142.5 61t-45.5 185q0 247 179 247q54 0 100 -43q-32 85 -85 134q-51 -30 -83 -51q-21 11 -21 43q29 15 65 36q-34 20 -87 40q0 34 13 50q71 -22 127 -60q64 36 88 54q20 -13 22 -45q-34 -17 -74 -39q132 -123 132 -351zM243 57
q106 0 106 182.5t-106 182.5t-106 -182.5t106 -182.5z" />
    <glyph glyph-name="ntilde" unicode="&#xf1;" horiz-adv-x="533" 
d="M443 350l-1 -97q0 -105 12 -195l35 -3q2 -22 2 -30.5t-3 -25.5q-28 1 -84 1t-80 -1q-3 15 -3 28.5t2 27.5l35 3q8 117 8 200.5t-16.5 119.5t-56.5 36q-54 0 -119 -65q-1 -26 -1 -121.5t9 -169.5l37 -3q2 -22 2 -30.5t-3 -25.5q-28 1 -82 1t-79 -1q-3 15 -3 28.5t2 27.5
l35 3q9 100 9 183.5t-8 165.5l-37 3q-3 17 -3 33.5t1 22.5q51 1 124 9l5 -5q-2 -12 -6 -60q31 31 72 49.5t77 18.5q118 0 118 -128zM165 620.5q29 22.5 55 22.5t57.5 -16.5t48.5 -16.5q25 0 50 40q27 -12 34 -33q-14 -27 -43 -50t-55.5 -23t-58 16.5t-53 16.5t-46.5 -40
q-25 12 -32 33q14 28 43 50.5z" />
    <glyph glyph-name="ograve" unicode="&#xf2;" horiz-adv-x="466" 
d="M233 478q188 0 188 -241q0 -111 -35 -176q-40 -76 -153 -76t-153 76q-35 65 -35 176q0 241 188 241zM233 57q106 0 106 182.5t-106 182.5t-106 -182.5t106 -182.5zM285 528q-124 51 -184 75q1 28 10 44.5t30 34.5q46 -39 95.5 -71.5t68.5 -45.5q-5 -21 -20 -37z" />
    <glyph glyph-name="oacute" unicode="&#xf3;" horiz-adv-x="466" 
d="M233 478q188 0 188 -241q0 -111 -35 -176q-40 -76 -153 -76t-153 76q-35 65 -35 176q0 241 188 241zM233 57q106 0 106 182.5t-106 182.5t-106 -182.5t106 -182.5zM181 528q-15 16 -20 37q19 13 48 32t43 29q40 28 73 56q21 -18 30 -34.5t10 -44.5q-60 -24 -184 -75z" />
    <glyph glyph-name="ocircumflex" unicode="&#xf4;" horiz-adv-x="466" 
d="M233 478q188 0 188 -241q0 -111 -35 -176q-40 -76 -153 -76t-153 76q-35 65 -35 176q0 241 188 241zM233 57q106 0 106 182.5t-106 182.5t-106 -182.5t106 -182.5zM347 528l-114 63q-33 -18 -114 -63q-16 18 -20 37q18 15 47 39q61 51 87 78q26 -27 71 -64.5l63 -52.5
q-5 -21 -20 -37z" />
    <glyph glyph-name="otilde" unicode="&#xf5;" horiz-adv-x="466" 
d="M233 478q188 0 188 -241q0 -111 -35 -176q-40 -76 -153 -76t-153 76q-35 65 -35 176q0 241 188 241zM233 57q106 0 106 182.5t-106 182.5t-106 -182.5t106 -182.5zM132 620.5q29 22.5 55 22.5t57.5 -16.5t48.5 -16.5q25 0 50 40q27 -12 34 -33q-14 -27 -43 -50t-55.5 -23
t-58 16.5t-53 16.5t-46.5 -40q-25 12 -32 33q14 28 43 50.5z" />
    <glyph glyph-name="odieresis" unicode="&#xf6;" horiz-adv-x="466" 
d="M233 478q188 0 188 -241q0 -111 -35 -176q-40 -76 -153 -76t-153 76q-35 65 -35 176q0 241 188 241zM233 57q106 0 106 182.5t-106 182.5t-106 -182.5t106 -182.5zM209 607q0 -55 -58 -55q-45 0 -45 46q0 56 58 56q45 0 45 -47zM359 607q0 -55 -58 -55q-45 0 -45 46
q0 56 58 56q45 0 45 -47z" />
    <glyph glyph-name="divide" unicode="&#xf7;" 
d="M507 286q-92 9 -178.5 9t-153.5 -4.5t-85 -9.5q-3 14 -3 40t7 48q69 -9 167 -9q200 0 250 14q3 -14 3 -40t-7 -48zM365 500q0 -30 -18 -50t-55 -20q-57 0 -57 58q0 72 73 72q57 0 57 -60zM365 165q0 -30 -18 -50t-55 -20q-57 0 -57 58q0 72 73 72q57 0 57 -60z" />
    <glyph glyph-name="oslash" unicode="&#xf8;" horiz-adv-x="466" 
d="M146 -81q-29 0 -49 16q10 25 32 75q-84 51 -84 227q0 241 188 241q35 0 64 -9l23 72q12 2 30 2t39 -16q-13 -28 -37 -86q69 -58 69 -204q0 -111 -35 -176q-40 -76 -153 -76q-18 0 -46 4q-10 -30 -22 -68q-14 -2 -19 -2zM127 237q0 -105 34 -148q56 142 116 322
q-19 11 -44 11q-106 0 -106 -185zM233 57q106 0 106 180q0 79 -20 125q-57 -147 -109 -303q7 -2 23 -2z" />
    <glyph glyph-name="ugrave" unicode="&#xf9;" horiz-adv-x="502" 
d="M82 129l1 107q0 89 -8 171l-37 3q-3 16 -3 33t1 23q51 1 124 9l5 -5q-9 -59 -9 -211v-47q0 -84 15.5 -119.5t52.5 -35.5q52 0 113 61q2 23 2 89v29q0 89 -8 171l-37 3q-3 17 -3 33.5t1 22.5q51 1 124 9l5 -5q-9 -59 -9 -211v-32q0 -82 9 -160l37 -2q2 -22 2 -32.5
t-3 -25.5q-39 -2 -109 -10q-8 18 -12 50q-75 -62 -138 -62t-89.5 35t-26.5 109zM299 528q-124 51 -184 75q1 28 10 44.5t30 34.5q46 -39 95.5 -71.5t68.5 -45.5q-5 -21 -20 -37z" />
    <glyph glyph-name="uacute" unicode="&#xfa;" horiz-adv-x="502" 
d="M82 129l1 107q0 89 -8 171l-37 3q-3 16 -3 33t1 23q51 1 124 9l5 -5q-9 -59 -9 -211v-47q0 -84 15.5 -119.5t52.5 -35.5q52 0 113 61q2 23 2 89v29q0 89 -8 171l-37 3q-3 17 -3 33.5t1 22.5q51 1 124 9l5 -5q-9 -59 -9 -211v-32q0 -82 9 -160l37 -2q2 -22 2 -32.5
t-3 -25.5q-39 -2 -109 -10q-8 18 -12 50q-75 -62 -138 -62t-89.5 35t-26.5 109zM196 528q-15 16 -20 37q19 13 48 32t42 29q41 28 74 56q21 -18 30 -34.5t10 -44.5q-60 -24 -184 -75z" />
    <glyph glyph-name="ucircumflex" unicode="&#xfb;" horiz-adv-x="502" 
d="M82 129l1 107q0 89 -8 171l-37 3q-3 16 -3 33t1 23q51 1 124 9l5 -5q-9 -59 -9 -211v-47q0 -84 15.5 -119.5t52.5 -35.5q52 0 113 61q2 23 2 89v29q0 89 -8 171l-37 3q-3 17 -3 33.5t1 22.5q51 1 124 9l5 -5q-9 -59 -9 -211v-32q0 -82 9 -160l37 -2q2 -22 2 -32.5
t-3 -25.5q-39 -2 -109 -10q-8 18 -12 50q-75 -62 -138 -62t-89.5 35t-26.5 109zM362 528l-114 63q-33 -18 -114 -63q-16 18 -20 37q18 15 48 39q60 51 86 78q26 -27 71 -64.5l63 -52.5q-5 -21 -20 -37z" />
    <glyph glyph-name="udieresis" unicode="&#xfc;" horiz-adv-x="502" 
d="M82 129l1 107q0 89 -8 171l-37 3q-3 16 -3 33t1 23q51 1 124 9l5 -5q-9 -59 -9 -211v-47q0 -84 15.5 -119.5t52.5 -35.5q52 0 113 61q2 23 2 89v29q0 89 -8 171l-37 3q-3 17 -3 33.5t1 22.5q51 1 124 9l5 -5q-9 -59 -9 -211v-32q0 -82 9 -160l37 -2q2 -22 2 -32.5
t-3 -25.5q-39 -2 -109 -10q-8 18 -12 50q-75 -62 -138 -62t-89.5 35t-26.5 109zM224 607q0 -55 -58 -55q-45 0 -45 46q0 56 58 56q45 0 45 -47zM374 607q0 -55 -58 -55q-45 0 -45 46q0 56 58 56q45 0 45 -47z" />
    <glyph glyph-name="yacute" unicode="&#xfd;" horiz-adv-x="439" 
d="M264 411q-2 10 -2 26.5t3 29.5q30 -1 83.5 -1t82.5 1q3 -13 3 -28t-2 -28l-30 -3q-27 -73 -69.5 -201t-64 -188t-40 -97t-40.5 -70q-42 -62 -99.5 -62t-105.5 32q4 58 33 83q30 -41 73 -41q46 0 102 130q-51 179 -161 414l-33 3q-2 12 -2 27.5t3 28.5q29 -1 86.5 -1
t87.5 1q3 -13 3 -28.5t-2 -27.5l-41 -3q19 -111 98 -297h4q50 162 72 297zM189 528q-15 16 -20 37q19 13 48 32t43 29q40 28 73 56q21 -18 30 -34.5t10 -44.5q-60 -24 -184 -75z" />
    <glyph glyph-name="thorn" unicode="&#xfe;" horiz-adv-x="494" 
d="M298 478q141 0 141 -240q0 -92 -37 -167q-19 -40 -59 -63t-89.5 -23t-101.5 24q5 -125 9 -160l37 -3l2 -26q0 -16 -3 -30q-28 1 -82 1t-79 -1q-3 18 -3 29.5t2 26.5l37 3q8 101 8 328v192q0 180 -5 245l-40 3q-3 13 -3 30.5t1 25.5q91 5 130 9l4 -5q-14 -119 -14 -267
q71 68 145 68zM245 57q109 0 109 194q0 118 -38 149q-19 14 -48 14t-61 -19t-54 -46q-2 -83 -2 -269q58 -23 94 -23z" />
    <glyph glyph-name="ydieresis" unicode="&#xff;" horiz-adv-x="439" 
d="M264 411q-2 10 -2 26.5t3 29.5q30 -1 83.5 -1t82.5 1q3 -13 3 -28t-2 -28l-30 -3q-27 -73 -69.5 -201t-64 -188t-40 -97t-40.5 -70q-42 -62 -99.5 -62t-105.5 32q4 58 33 83q30 -41 73 -41q46 0 102 130q-51 179 -161 414l-33 3q-2 12 -2 27.5t3 28.5q29 -1 86.5 -1
t87.5 1q3 -13 3 -28.5t-2 -27.5l-41 -3q19 -111 98 -297h4q50 162 72 297zM218 607q0 -55 -58 -55q-45 0 -45 46q0 56 58 56q45 0 45 -47zM368 607q0 -55 -58 -55q-45 0 -45 46q0 56 58 56q45 0 45 -47z" />
    <glyph glyph-name="dotlessi" unicode="&#x131;" horiz-adv-x="263" 
d="M91 58q9 98 9 179.5t-8 169.5l-37 3q-3 17 -3 32.5t1 23.5q58 2 124 9l5 -5q-9 -59 -9 -198t9 -214l37 -3q2 -16 2 -27.5t-3 -28.5q-35 1 -81 1t-80 -1q-3 15 -3 26.5t2 29.5z" />
    <glyph glyph-name="Lslash" unicode="&#x141;" horiz-adv-x="443" 
d="M33 222q-6 12 -6 29t6 43l78 26q0 184 -9 264l-34 3q-2 16 -2 27.5t3 28.5q35 -1 81 -1t80 1q3 -15 3 -26.5t-2 -29.5l-38 -3q-7 -92 -7 -238q97 35 129 53q6 -12 6 -29.5t-6 -42.5l-129 -45q0 -124 7 -206q31 -3 90.5 -3t90.5 5l3 68q17 3 30.5 3t25.5 -1q3 -76 9 -148
l-5 -5q-47 5 -191 5t-178 -1q-3 15 -3 26.5t2 29.5l35 3q6 100 8 197q-57 -22 -77 -33z" />
    <glyph glyph-name="lslash" unicode="&#x142;" horiz-adv-x="252" 
d="M93 232v26q-47 -18 -72 -32q-7 13 -7 32.5t7 39.5l72 24v47q0 180 -5 245l-40 3q-3 13 -3 30.5t1 25.5q91 5 130 9l4 -5q-14 -119 -14 -256v-73q48 18 77 34q7 -13 7 -30.5t-7 -41.5l-77 -26v-28q0 -123 9 -198l37 -3q2 -16 2 -27.5t-3 -28.5q-35 1 -81 1t-80 -1
q-3 15 -3 26.5t2 29.5l35 3q9 94 9 174z" />
    <glyph glyph-name="OE" unicode="&#x152;" horiz-adv-x="806" 
d="M500 0l-105 -1q-42 -14 -99.5 -14t-103 19t-71.5 49t-41.5 77t-20 92t-4.5 105q0 328 245 328q41 0 79 -11q81 -5 181 -5t181 9l5 -5q-7 -77 -9 -142q-12 -1 -25.5 -1t-30.5 3l-3 68q-60 3 -111 3t-86 -3q-6 -57 -6 -206q21 -1 76 -1t102 5l3 37q16 2 28 2t28 -3
q-1 -35 -1 -80.5t1 -63.5q-15 -3 -26.5 -3t-29.5 2l-3 35q-38 2 -82 2t-96 -2q0 -131 7 -219q31 -3 100.5 -3t100.5 5l3 68q16 3 30 3t26 -1q3 -76 9 -148l-5 -5q-79 5 -246 5zM216 81q34 -22 88 -22t92 30q4 116 4 225t-13 254q-37 28 -87 28q-86 0 -126 -73t-40 -197
q0 -193 82 -245z" />
    <glyph glyph-name="oe" unicode="&#x153;" horiz-adv-x="744" 
d="M233 478q106 0 151 -81q51 81 148 81q78 0 119.5 -46t41.5 -114q0 -36 -12 -72q-75 -24 -149 -24t-111 5q0 -123 53 -155q24 -15 59 -15q57 0 124 62q29 -30 37 -79q-83 -56 -169 -56q-102 0 -146 80q-44 -79 -146 -79q-113 0 -153 76q-35 65 -35 176q0 241 188 241z
M233 57q106 0 106 182.5t-106 182.5t-106 -182.5t106 -182.5zM525 422q-93 0 -104 -137q43 -5 97.5 -5t85.5 10q3 18 3 36q0 41 -19.5 68.5t-62.5 27.5z" />
    <glyph glyph-name="Scaron" unicode="&#x160;" horiz-adv-x="480" 
d="M132 176q17 -19 17 -46.5t-9 -44.5q44 -36 101.5 -36t86.5 26.5t29 72.5t-32 79t-77.5 55t-90.5 46.5t-77 65.5t-32 97q0 77 51 120.5t131 43.5t138.5 -38t58.5 -102.5t-52 -64.5q-31 0 -48 19t-17 49t12 46q-35 32 -86 32t-76.5 -26t-25.5 -65t23 -66.5t57 -45t74 -40
t74 -44.5t57 -59.5t23 -85.5q0 -79 -54.5 -129t-139.5 -50t-150.5 39.5t-65.5 110.5q0 60 52 60q31 0 48 -19zM111 835q68 -21 127 -52q87 40 135 52q12 -18 15 -39q-33 -19 -58 -33q-54 -31 -92 -69q-44 42 -143 103q3 21 16 38z" />
    <glyph glyph-name="scaron" unicode="&#x161;" horiz-adv-x="403" 
d="M312.5 445q41.5 -33 41.5 -85.5t-47 -52.5q-28 0 -43.5 17.5t-15.5 41.5t8 40q-24 19 -57 19t-54.5 -16t-21.5 -47t24.5 -54t59.5 -37.5t70 -30t59.5 -44t24.5 -70.5q0 -65 -43.5 -103t-118.5 -38t-122.5 32t-47.5 84v4q0 54 47 54q28 0 43.5 -17.5t15.5 -40.5t-5 -36
q20 -13 63.5 -13t66 15t22.5 41.5t-24.5 47.5t-59.5 35.5t-70 31t-59.5 47.5t-24.5 74q0 62 43.5 98t113.5 36t111.5 -33zM86 672l114 -63q33 18 114 63q16 -18 20 -37q-18 -15 -48 -39q-60 -51 -86 -78q-26 27 -71 64.5l-63 52.5q5 21 20 37z" />
    <glyph glyph-name="Ydieresis" unicode="&#x178;" horiz-adv-x="495" 
d="M328 587q-2 16 -2 27.5t3 28.5q32 -1 79.5 -1t82.5 1q3 -17 3 -31.5t-2 -24.5l-35 -3q-137 -295 -162 -390q3 -76 8 -136l36 -3q2 -16 2 -27.5t-3 -28.5q-35 1 -81 1t-80 -1q-3 15 -3 26.5t2 29.5l35 3q6 87 7 138q-26 86 -140 314q-32 62 -38 74l-37 3q-2 16 -2 27.5
t3 28.5q35 -1 86.5 -1t85.5 1q3 -15 3 -26.5t-2 -29.5l-36 -3q19 -71 63 -167t56 -124h4q27 52 57 135.5t44 155.5zM232 759q0 -55 -58 -55q-45 0 -45 46q0 56 58 56q45 0 45 -47zM382 759q0 -55 -58 -55q-45 0 -45 46q0 56 58 56q45 0 45 -47z" />
    <glyph glyph-name="Zcaron" unicode="&#x17d;" horiz-adv-x="486" 
d="M158 76q41 -3 94.5 -3t135.5 7l3 69q17 3 30.5 3t25.5 -1q3 -82 9 -152l-5 -5q-71 9 -200 9t-214 -7q-6 15 -7 36q43 68 160 269.5t160 271.5q-34 1 -94 1t-142 -7l-3 -74q-16 -3 -30 -3t-26 1q-3 82 -9 152l5 5q74 -9 216.5 -9t183.5 6q5 -10 5 -38q-43 -81 -160 -287
t-138 -244zM111 835q68 -21 127 -52q87 40 135 52q12 -18 15 -39q-33 -19 -58 -33q-54 -31 -92 -69q-44 42 -143 103q3 21 16 38z" />
    <glyph glyph-name="zcaron" unicode="&#x17e;" horiz-adv-x="400" 
d="M301 128q16 3 30 3t26 -1q2 -48 9 -132l-5 -5q-63 9 -160.5 9t-178.5 -6q-6 15 -7 36q43 67 129.5 189.5t122.5 175.5q-116 -2 -183 -7l-3 -52q-16 -3 -30 -3t-26 1q-2 48 -9 132l5 5q63 -9 174 -9t165 6q5 -10 5 -38q-40 -76 -116.5 -190.5t-106.5 -168.5q93 1 156 7z
M80 672l114 -63q33 18 114 63q16 -18 20 -37q-18 -15 -48 -39q-60 -51 -86 -78q-26 27 -71 64.5l-63 52.5q5 21 20 37z" />
    <glyph glyph-name="florin" unicode="&#x192;" horiz-adv-x="400" 
d="M194 274q13 -338 13 -343q0 -73 -37 -107t-99 -34t-123 22l-1 13q0 39 18 73q64 -35 101.5 -35t48 33t10.5 112t-12 267h-90q-8 16 -8 30t3 26h92q-4 132 -4 143q0 100 38.5 146t116.5 46t116 -38.5t38 -90t-47 -51.5q-23 0 -40.5 13.5t-18 37.5t4.5 34q-15 36 -56 36
t-54.5 -37.5t-13.5 -116t2 -121.5q88 2 159 7q7 -14 7 -34.5t-4 -35.5q-52 3 -160 5z" />
    <glyph glyph-name="circumflex" unicode="&#x2c6;" horiz-adv-x="488" 
d="M358 528l-114 63q-33 -18 -114 -63q-16 18 -20 37q18 15 48 39q60 51 86 78q26 -27 71 -64.5l63 -52.5q-5 -21 -20 -37z" />
    <glyph glyph-name="caron" unicode="&#x2c7;" horiz-adv-x="488" 
d="M130 672l114 -63q33 18 114 63q16 -18 20 -37q-18 -15 -48 -39q-60 -51 -86 -78q-26 27 -71 64.5l-63 52.5q5 21 20 37z" />
    <glyph glyph-name="breve" unicode="&#x2d8;" horiz-adv-x="474" 
d="M237 599q38 0 60 18.5t39 54.5q23 -12 28 -37q-16 -44 -49.5 -75.5t-77.5 -31.5t-77.5 31.5t-49.5 75.5q5 25 28 37q18 -36 39.5 -54.5t59.5 -18.5z" />
    <glyph glyph-name="dotaccent" unicode="&#x2d9;" horiz-adv-x="235" 
d="M174 623q0 -62 -64 -62q-50 0 -50 51q0 63 64 63q50 0 50 -52z" />
    <glyph glyph-name="ring" unicode="&#x2da;" horiz-adv-x="386" 
d="M257 673.5q17 -19.5 17 -60t-21.5 -63.5t-67.5 -23q-75 0 -75 83t89 83q41 0 58 -19.5zM197 656q-48 0 -48 -45q0 -26 9 -36.5t29 -10.5q48 0 48 48q0 44 -38 44z" />
    <glyph glyph-name="ogonek" unicode="&#x2db;" horiz-adv-x="320" 
d="M121 -115q0 -41 42 -41q54 0 91 51q16 -26 16 -62q-44 -43 -114 -43q-50 0 -78 25.5t-28 67t37 81t102 57.5l39 -18q-49 -16 -78 -51t-29 -67z" />
    <glyph glyph-name="tilde" unicode="&#x2dc;" horiz-adv-x="508" 
d="M153 620.5q29 22.5 55 22.5t57.5 -16.5t48.5 -16.5q25 0 50 40q27 -12 34 -33q-14 -27 -43 -50t-55.5 -23t-58 16.5t-53 16.5t-46.5 -40q-25 12 -32 33q14 28 43 50.5z" />
    <glyph glyph-name="hungarumlaut" unicode="&#x2dd;" horiz-adv-x="848" 
d="M146 528q-16 12 -28 37q16 13 40.5 32t35.5 29q29 23 60 56q27 -18 40.5 -34t19.5 -45q-86 -36 -168 -75zM336 528q-16 12 -28 37q16 13 40.5 32t35.5 29q29 23 60 56q27 -18 40.5 -34t19.5 -45q-118 -50 -168 -75z" />
    <glyph glyph-name="pi" unicode="&#x3c0;" horiz-adv-x="621" 
d="M494 398q-8 -92 -8 -176t9 -157l36 -3q2 -14 2 -28t-3 -30q-56 -2 -117 -10q-7 19 -11 47q11 116 11 197t-10 164q-39 1 -98 1t-81 -1q-8 -94 -8 -181.5t9 -162.5l37 -3q2 -16 2 -27.5t-3 -28.5q-35 1 -81 1t-80 -1q-3 15 -3 26.5t2 29.5l35 3q9 98 9 174.5t-9 164.5
q-71 -6 -79 -8q-5 15 -5 39.5t9 48.5q85 -9 204 -9q244 0 303 14q5 -15 5 -39.5t-9 -48.5q-24 2 -68 4z" />
    <glyph glyph-name="endash" unicode="&#x2013;" horiz-adv-x="502" 
d="M474 215q-98 9 -197.5 9t-166.5 -5t-86 -9q-4 14 -4 38t8 50q74 -9 175 -9t179 4.5t96 9.5q4 -18 4 -40t-8 -48z" />
    <glyph glyph-name="emdash" unicode="&#x2014;" horiz-adv-x="731" 
d="M697 215q-164 9 -298 9t-237 -5t-136 -9q-6 14 -6 38.5t14 49.5q123 -9 280 -9q304 0 391 14q6 -18 6 -40.5t-14 -47.5z" />
    <glyph glyph-name="quoteleft" unicode="&#x2018;" horiz-adv-x="261" 
d="M196 682q5 -15 5 -24.5t-3 -24.5q-67 0 -67 -69q0 -25 26 -28q38 -3 38 -49q0 -35 -16.5 -53.5t-59.5 -18.5q-59 0 -59 80t32 133.5t104 53.5z" />
    <glyph glyph-name="quoteright" unicode="&#x2019;" horiz-adv-x="261" 
d="M65 415q-5 15 -5 24.5t3 24.5q67 0 67 69q0 25 -26 28q-38 3 -38 49q0 35 16.5 53.5t59.5 18.5q59 0 59 -80t-32 -133.5t-104 -53.5z" />
    <glyph glyph-name="quotesinglbase" unicode="&#x201a;" horiz-adv-x="281" 
d="M85 -152q-5 15 -5 24.5t3 24.5q67 0 67 69q0 25 -26 28q-38 3 -38 49q0 35 16.5 53.5t59.5 18.5q59 0 59 -80t-32 -133.5t-104 -53.5z" />
    <glyph glyph-name="quotedblleft" unicode="&#x201c;" horiz-adv-x="442" 
d="M196 682q5 -15 5 -24.5t-3 -24.5q-67 0 -67 -69q0 -25 26 -28q38 -3 38 -49q0 -35 -16.5 -53.5t-59.5 -18.5q-59 0 -59 80t32 133.5t104 53.5zM377 682q5 -15 5 -24.5t-3 -24.5q-67 0 -67 -69q0 -25 26 -28q38 -3 38 -49q0 -35 -16.5 -53.5t-59.5 -18.5q-59 0 -59 80
t32 133.5t104 53.5z" />
    <glyph glyph-name="quotedblright" unicode="&#x201d;" horiz-adv-x="442" 
d="M65 415q-5 15 -5 24.5t3 24.5q67 0 67 69q0 25 -26 28q-38 3 -38 49q0 35 16.5 53.5t59.5 18.5q59 0 59 -80t-32 -133.5t-104 -53.5zM246 415q-5 15 -5 24.5t3 24.5q67 0 67 69q0 25 -26 28q-38 3 -38 49q0 35 16.5 53.5t59.5 18.5q59 0 59 -80t-32 -133.5t-104 -53.5z
" />
    <glyph glyph-name="quotedblbase" unicode="&#x201e;" horiz-adv-x="462" 
d="M85 -152q-5 15 -5 24.5t3 24.5q67 0 67 69q0 25 -26 28q-38 3 -38 49q0 35 16.5 53.5t59.5 18.5q59 0 59 -80t-32 -133.5t-104 -53.5zM266 -152q-5 15 -5 24.5t3 24.5q67 0 67 69q0 25 -26 28q-38 3 -38 49q0 35 16.5 53.5t59.5 18.5q59 0 59 -80t-32 -133.5t-104 -53.5z
" />
    <glyph glyph-name="dagger" unicode="&#x2020;" horiz-adv-x="427" 
d="M249 338q0 -286 17 -340q-33 -10 -61 -10t-45 2q14 117 14 268t-1 194q-130 -6 -160 -14q-3 14 -3 40t7 48q67 -9 154 -9q-5 76 -14 128q26 10 52 10t54 -2q-7 -56 -11 -136q126 3 162 14q3 -13 3 -39.5t-7 -48.5q-71 7 -161 9v-114z" />
    <glyph glyph-name="daggerdbl" unicode="&#x2021;" horiz-adv-x="427" 
d="M249 338q0 -98 2 -147q125 3 161 14q3 -14 3 -40t-7 -48q-55 7 -154 9q5 -109 12 -128q-33 -10 -61 -10t-45 2q7 53 10 136q-129 -6 -159 -14q-3 13 -3 39.5t7 48.5q84 -9 157 -9q2 74 2 146t-1 115q-130 -6 -160 -14q-3 14 -3 40t7 48q67 -9 154 -9q-5 76 -14 128
q26 10 52 10t54 -2q-7 -56 -11 -136q126 3 162 14q3 -13 3 -39.5t-7 -48.5q-71 7 -161 9v-114z" />
    <glyph glyph-name="bullet" unicode="&#x2022;" horiz-adv-x="302" 
d="M242 335q0 -43 -25 -70.5t-77 -27.5q-80 0 -80 81q0 101 102 101q80 0 80 -84z" />
    <glyph glyph-name="ellipsis" unicode="&#x2026;" horiz-adv-x="810" 
d="M220 55q0 -30 -18 -50t-55 -20q-57 0 -57 58q0 72 73 72q57 0 57 -60zM490 55q0 -30 -18 -50t-55 -20q-57 0 -57 58q0 72 73 72q57 0 57 -60zM760 55q0 -30 -18 -50t-55 -20q-57 0 -57 58q0 72 73 72q57 0 57 -60z" />
    <glyph glyph-name="perthousand" unicode="&#x2030;" horiz-adv-x="1223" 
d="M335 -46q-34 0 -57 19q124 292 254 713q16 2 26 2q28 0 53 -18q-121 -279 -255 -714q-16 -2 -21 -2zM839 193q0 -202 -147 -202t-147 202t147 202t147 -202zM615 193q0 -149 77.5 -149t77.5 149t-77.5 149t-77.5 -149zM344 451q0 -202 -147 -202t-147 202t147 202
t147 -202zM120 451q0 -149 77.5 -149t77.5 149t-77.5 149t-77.5 -149zM1183 193q0 -202 -147 -202t-147 202t147 202t147 -202zM959 193q0 -149 77.5 -149t77.5 149t-77.5 149t-77.5 -149z" />
    <glyph glyph-name="guilsinglleft" unicode="&#x2039;" horiz-adv-x="298" 
d="M228 426q-79 -142 -81 -146q33 -62 81 -146q-23 -21 -48 -26q-18 22 -41 50t-35 44q-30 36 -74 78q44 42 65 68t44 54t41 50q28 -8 48 -26z" />
    <glyph glyph-name="guilsinglright" unicode="&#x203a;" horiz-adv-x="298" 
d="M70 426q20 18 48 26q18 -22 41 -50t35 -44q30 -36 74 -78q-44 -42 -65 -68t-44 -54t-41 -50q-25 5 -48 26q48 84 81 146q-2 4 -81 146z" />
    <glyph glyph-name="fraction" unicode="&#x2044;" horiz-adv-x="889" 
d="M335 -46q-34 0 -57 19q124 292 254 713q16 2 26 2q28 0 53 -18q-121 -279 -255 -714q-16 -2 -21 -2z" />
    <glyph glyph-name="zeroinferior" unicode="&#x2080;" horiz-adv-x="377" 
d="M337 86q0 -202 -147 -202t-147 202t147 202t147 -202zM113 86q0 -149 77.5 -149t77.5 149t-77.5 149t-77.5 -149z" />
    <glyph glyph-name="oneinferior" unicode="&#x2081;" horiz-adv-x="265" 
d="M195 284q-9 -66 -9 -177t5 -167l56 -5q1 -6 1 -18.5t-3 -29.5q-34 1 -89 1t-88 -1q-4 12 -4 25.5t2 22.5l55 5q4 67 4 149t-2 117q-51 -34 -68 -51q-29 31 -37 63q44 18 132 70q36 0 45 -4z" />
    <glyph glyph-name="twoinferior" unicode="&#x2082;" horiz-adv-x="349" 
d="M251 -49l2 42q13 3 27 3h23q2 -54 5 -99l-9 -9q-45 7 -117 7h-11q-77 0 -130 -10q-4 20 -4 32q30 52 96 118q94 94 94 142q0 23 -14 42.5t-43.5 19.5t-48.5 -18q5 -10 5 -25.5t-11 -28.5t-33 -13q-35 0 -35 41.5t37.5 67t88 25.5t86.5 -28t36 -81q0 -28 -17.5 -60
t-35 -52t-57 -61t-52.5 -58l99 2q9 0 19 1z" />
    <glyph glyph-name="threeinferior" unicode="&#x2083;" horiz-adv-x="370" 
d="M136 222q3 -9 3 -24.5t-12 -29.5t-35 -14q-38 0 -38 43t37.5 67t88 24t86.5 -28t36 -84t-42 -82q56 -29 56 -87t-36 -90.5t-114 -32.5t-125 44q3 17 12.5 32t17.5 22l8 6q35 -51 90 -51q40 0 59.5 18t19.5 46q0 46 -40 62q-15 -1 -39.5 -1t-43.5 3q-2 12 -2 23.5t8 23.5
q17 -6 45.5 -6t44 22t15.5 46.5t-14.5 43t-42.5 18.5t-43 -14z" />
    <glyph glyph-name="fourinferior" unicode="&#x2084;" horiz-adv-x="360" 
d="M182 276q23 9 45 9t56 -3q-9 -68 -9 -142t1 -89q24 4 31 6q6 -18 6 -35.5t-7 -35.5q-27 3 -28 3q0 -29 3 -50l30 -4q1 -6 1 -18.5t-3 -29.5q-25 1 -66 1t-61 -1q-4 12 -4 25.5t2 22.5l28 4q0 1 3 53h-44q-81 0 -129 -3q-5 13 -5 31q105 164 150 256zM212 46q1 11 1 58.5
t-3 115.5q-36 -54 -98 -175q70 1 100 1z" />
    <glyph glyph-name="fiveinferior" unicode="&#x2085;" horiz-adv-x="370" 
d="M292 277l-1 -16q0 -3 -3 -76q-16 -2 -24 -2t-27 3l-2 40h-96l-10 -91q23 3 39 3q74 0 108 -38t34 -92t-36.5 -89t-109.5 -35q-43 0 -81.5 24.5t-38.5 67.5t39 43q46 0 46 -50q0 -8 -4 -20q17 -12 47 -12t50 21t20 50.5t-17.5 53t-59 23.5t-67.5 -17q-21 0 -41 8
q19 51 19 174q0 17 -2 35q84 -6 135 -6t75 7z" />
    <glyph glyph-name="sixinferior" unicode="&#x2086;" horiz-adv-x="356" 
d="M219 178q-12 14 -12 30t2 21q-15 10 -40 10t-45.5 -36t-21.5 -101q35 38 84 38t84.5 -34t35.5 -91t-39 -94t-105.5 -37t-96 46.5t-29.5 143.5q0 214 139 214q42 0 80 -20.5t38 -62t-39 -41.5q-23 0 -35 14zM217.5 -43.5q21.5 19.5 21.5 56t-17.5 56t-46.5 19.5
t-49.5 -20.5t-20.5 -56.5t18 -55t45.5 -19t49 19.5z" />
    <glyph glyph-name="seveninferior" unicode="&#x2087;" horiz-adv-x="312" 
d="M29 185l-1 26q-1 26 -5 66l9 9q25 -7 113.5 -7t131.5 10q5 -15 5 -32q-47 -87 -86.5 -190.5t-48.5 -170.5q-16 -8 -38 -8t-38 13q28 96 117 325q-54 0 -108 -4q-2 -24 -2 -36q-12 -3 -23.5 -3t-25.5 2z" />
    <glyph glyph-name="eightinferior" unicode="&#x2088;" horiz-adv-x="343" 
d="M31 -18q0 56 70 110q-59 38 -59 94q0 42 33.5 72t94.5 30t94 -28.5t33 -76.5t-53 -96q63 -39 63 -92t-42 -82t-97 -29q-76 0 -114 38q-23 24 -23 60zM100 -9q0 -54 70 -54q31 0 49.5 18.5t18.5 39.5t-22 36.5t-70 36.5q-46 -40 -46 -77zM127 226.5q-18 -12.5 -18 -33.5
t14 -36.5t28 -23t43 -21.5q38 33 38 71q0 56 -62 56q-25 0 -43 -12.5z" />
    <glyph glyph-name="nineinferior" unicode="&#x2089;" horiz-adv-x="356" 
d="M117 -5.5q12 -14.5 12 -29.5t-1 -19q14 -11 38 -11q75 0 75 135q-32 -37 -83 -37t-86.5 34t-35.5 90.5t38.5 93.5t105.5 37t96.5 -46t29.5 -143q0 -215 -142 -215q-42 0 -81 20t-39 62.5t38 42.5q23 0 35 -14.5zM216.5 103.5q21.5 19.5 21.5 57.5t-17.5 58t-46 20
t-50 -21.5t-21.5 -58t18.5 -56t46 -19.5t49 19.5z" />
    <glyph glyph-name="Euro" unicode="&#x20ac;" horiz-adv-x="590" 
d="M328 655q70 0 116.5 -29t65.5 -77q6 -18 6 -39q0 -60 -52 -60q-33 0 -49 20.5t-16 49.5t13 46q-32 30 -88 30q-137 0 -159 -201q112 2 191 8q7 -14 7 -34.5t-4 -35.5q-97 4 -197 6q0 -49 3 -83q63 -1 190 -1q8 -16 8 -30t-3 -26q-126 0 -186 -1q32 -139 154 -139
q39 0 81 19t71 52q31 -25 40 -79q-89 -66 -197 -66t-163.5 55t-71.5 155l-61 -4q-7 14 -7 34.5t4 35.5q57 -3 58 -3q-2 22 -2 81h-52q-8 16 -8 30t3 26h60q24 260 245 260z" />
    <glyph glyph-name="trademark" unicode="&#x2122;" horiz-adv-x="681" 
d="M282 689l1 18q59 3 76 5q11 -56 94 -209q64 129 82 209l13 -2l73 -3q1 -5 1 -15t-2 -20l-27 -2q-3 -41 -3 -117.5t5 -136.5l35 -4q1 -5 1 -11t-2 -22h-124q-2 6 -2 17t1 16l34 4q4 60 4 136v41q-19 -31 -71 -154q-14 -4 -23 -4t-22 2q-20 46 -72 144v-28q0 -92 5 -137
l35 -4q1 -5 1 -13t-2 -20h-117q-2 6 -2 17t1 16l34 4q4 52 4 134t-4 120l-25 2q-2 8 -2 17zM184 665q-2 -35 -2 -113.5t6 -135.5l35 -4q1 -6 1 -12.5t-2 -20.5h-126q-2 7 -2 17.5t1 15.5l34 4q5 56 5 136.5t-3 112.5l-48 -5l-2 -45q-10 -2 -34 -2l-6 95l3 3q40 -6 121 -6
t99 6l3 -3q-5 -46 -6 -89q-22 0 -35 2l-2 41z" />
    <glyph glyph-name="Omega" unicode="&#x2126;" horiz-adv-x="727" 
d="M562 366q0 230 -198.5 230t-198.5 -230q0 -68 35 -125.5t96 -73.5v-165q-150 0 -230 -11l-5 5q7 72 8 141q12 1 24.5 1t27.5 -3l3 -68q42 -4 60 -4t44 2l8 66q-78 31 -118 99t-40 146q0 110 60 192q32 42 89.5 67.5t135.5 25.5t136 -25.5t89 -67.5q61 -82 61 -192
q0 -78 -40.5 -146t-119.5 -99q1 -11 4.5 -33t4.5 -33q26 -2 44 -2t60 4l3 68q15 3 27.5 3t24.5 -1q1 -69 8 -141l-5 -5q-80 11 -230 11v165q62 16 97 73.5t35 125.5z" />
    <glyph glyph-name="partialdiff" unicode="&#x2202;" horiz-adv-x="486" 
d="M445 351q0 -154 -43 -238q-18 -35 -44 -65q-55 -63 -149 -63t-130 42.5t-36 119.5q0 141 58 236t172 95q55 0 94 -43q-17 84 -58.5 128t-123.5 74q6 35 21 50q239 -73 239 -336zM214 57q50 0 83 41q58 73 58 210q0 114 -83 114q-65 0 -103.5 -73t-38.5 -182.5t84 -109.5z
" />
    <glyph glyph-name="Delta" unicode="&#x2206;" horiz-adv-x="561" 
d="M546 -2q-74 5 -262 5t-270 -5q163 434 190 641q29 10 76 10t76 -10q27 -207 190 -641zM125 71q70 -5 137.5 -5t157.5 9q-47 196 -140 503h-15q-90 -299 -140 -507z" />
    <glyph glyph-name="product" unicode="&#x220f;" horiz-adv-x="751" 
d="M236 240v-112q0 -174 9 -280l36 -3q2 -16 2 -27.5t-3 -28.5q-35 1 -81 1t-80 -1q-3 15 -3 26.5t2 29.5l35 3q8 108 8 249v112q0 244 -7 354q-52 -3 -79 -7q-5 15 -5 40t11 52q99 -9 239 -9q286 0 356 14q5 -15 5 -40t-11 -52q-29 2 -79 4q-5 -98 -5 -325v-112
q0 -174 9 -280l36 -3q2 -16 2 -27.5t-3 -28.5q-35 1 -81 1t-80 -1q-3 15 -3 26.5t2 29.5l35 3q8 108 8 249v112q0 253 -8 359q-104 2 -153 2t-109 -3q-5 -98 -5 -327z" />
    <glyph glyph-name="summation" unicode="&#x2211;" horiz-adv-x="574" 
d="M196 570h-23l213 -319q8 -11 8 -30t-8 -31l-207 -308q84 -4 194 -4t163 9q8 -26 8 -53t-4 -45q-18 5 -99 9.5t-199 4.5t-184 -7q-6 15 -7 36q197 295 250 389q-53 94 -250 389q0 22 5 38q99 -9 181.5 -9t178 4.5t120.5 9.5q5 -15 5 -40t-11 -52q-132 9 -334 9z" />
    <glyph glyph-name="minus" unicode="&#x2212;" 
d="M507 286q-92 9 -178.5 9t-153.5 -4.5t-85 -9.5q-3 14 -3 40t7 48q69 -9 167 -9q200 0 250 14q3 -14 3 -40t-7 -48z" />
    <glyph glyph-name="radical" unicode="&#x221a;" 
d="M460 776q24 -2 95 -2t121 9q5 -17 5 -36t-11 -46q-80 9 -134 9q-48 -128 -106 -350t-83 -362q-29 -10 -75 -10t-75 10q-86 311 -150 463q40 17 72.5 17t43.5 -1q31 -189 105 -412h4q96 319 188 711z" />
    <glyph glyph-name="infinity" unicode="&#x221e;" horiz-adv-x="774" 
d="M228 520q114 0 156 -118q30 56 68.5 87t104 31t116.5 -49t51 -151.5t-49.5 -150.5t-128.5 -48q-115 0 -157 118q-30 -56 -68 -87t-103.5 -31t-116.5 49t-51 151.5t49.5 150.5t128.5 48zM635.5 403q-29.5 37 -77.5 37t-78 -34t-60 -101q23 -53 54 -80t81.5 -27t80 33.5
t29.5 84t-29.5 87.5zM138.5 238q29.5 -37 77.5 -37t77.5 34t59.5 101q-23 54 -53.5 80.5t-81 26.5t-80 -33.5t-29.5 -84t29.5 -87.5z" />
    <glyph glyph-name="integral" unicode="&#x222b;" horiz-adv-x="400" 
d="M221 506q0 -78 19 -325t19 -267q0 -64 -35 -94t-100.5 -30t-121.5 38q-2 7 -2 23q0 38 21 65q57 -53 106 -53q24 0 37.5 18t13.5 51q0 80 -19 302t-19 288t35 96t100.5 30t121.5 -38q3 -7 3 -22q0 -38 -22 -66q-57 53 -106 53q-24 0 -37.5 -18t-13.5 -51z" />
    <glyph glyph-name="approxequal" unicode="&#x2248;" 
d="M502 388q-25 33 -70 33t-131 -28.5t-133.5 -28.5t-83.5 27q0 39 14 76q25 -33 70.5 -33t132 28.5t134 28.5t83.5 -27q0 -34 -16 -76zM502 198q-25 33 -70 33t-131 -28.5t-133.5 -28.5t-83.5 27q0 39 14 76q25 -33 70.5 -33t132 28.5t134 28.5t83.5 -27q0 -34 -16 -76z
" />
    <glyph glyph-name="notequal" unicode="&#x2260;" 
d="M162 -46q-39 0 -66 19q44 89 102 219q-89 -6 -108 -11q-3 14 -3 40t7 48q57 -7 133 -9q19 45 55 135h-9q-31 0 -98 -4.5t-85 -9.5q-3 13 -3 39.5t7 48.5q71 -9 214 -9q34 85 85 226q18 2 40.5 2t51.5 -18q-40 -79 -98 -208q97 4 124 12q3 -13 3 -39.5t-7 -48.5
q-69 6 -150 8q-19 -44 -55 -134h26q31 0 98 4.5t85 9.5q3 -13 3 -39.5t-7 -48.5q-91 9 -231 9q-31 -78 -89 -239q-18 -2 -25 -2z" />
    <glyph glyph-name="lessequal" unicode="&#x2264;" 
d="M94 327q-7 14 -7 39.5t7 40.5q124 47 294 151q58 35 72 48q9 -11 21.5 -35.5t16.5 -44.5q-76 -30 -187.5 -88t-134.5 -71q47 -26 142 -75.5t180 -83.5q-4 -20 -16.5 -44.5t-21.5 -35.5q-14 13 -72 48q-170 104 -294 151zM507 -5q-92 9 -178.5 9t-153.5 -4.5t-85 -9.5
q-3 13 -3 39.5t7 48.5q69 -9 167 -9q200 0 250 14q3 -13 3 -39.5t-7 -48.5z" />
    <glyph glyph-name="greaterequal" unicode="&#x2265;" 
d="M491 407q7 -15 7 -40.5t-7 -39.5q-127 -49 -295 -151q-57 -35 -71 -48q-9 11 -21.5 35.5t-16.5 44.5q85 34 180 83.5t142 75.5q-46 26 -110 58q-127 67 -212 101q4 20 16.5 44.5t21.5 35.5q14 -13 71 -48q171 -104 295 -151zM507 -5q-92 9 -178.5 9t-153.5 -4.5t-85 -9.5
q-3 13 -3 39.5t7 48.5q69 -9 167 -9q200 0 250 14q3 -13 3 -39.5t-7 -48.5z" />
    <glyph glyph-name="lozenge" unicode="&#x25ca;" horiz-adv-x="599" 
d="M454 221q-11 26 -45 111q-61 153 -112 249h-11q-42 -78 -89 -200t-63 -160q16 -38 44 -112q66 -170 108 -248h11q51 96 98.5 215t58.5 145zM371 -200q-30 -10 -71.5 -10t-71.5 10q-15 55 -78 204t-90 217q27 68 68 164q85 202 100 257q30 10 71.5 10t71.5 -10
q15 -55 78 -204t90 -217q-27 -68 -67 -164q-86 -202 -101 -257z" />
    <glyph glyph-name="fi" unicode="&#xfb01;" horiz-adv-x="540" 
d="M172 313l1 -76q0 -103 10 -179l36 -3q2 -16 2 -27.5t-3 -28.5q-35 1 -81 1t-80 -1q-3 15 -3 26.5t2 29.5l35 3q9 108 9 150l-3 200q-40 0 -57 -1q-6 16 -6 31.5t2 23.5h58q-1 13 -1 40q0 173 129 173q53 0 93 -31q0 -57 -33 -83q-26 54 -64 54q-52 0 -52 -119
q0 -23 1 -34q184 0 287 13l5 -5q-9 -58 -9 -197.5t9 -214.5l37 -3q2 -16 2 -27.5t-3 -28.5q-35 1 -81 1t-80 -1q-3 15 -3 26.5t2 29.5l35 3q9 98 9 178.5t-8 168.5q-99 3 -197 3v-95zM468 613q0 -62 -64 -62q-50 0 -50 51q0 63 64 63q50 0 50 -52z" />
    <glyph glyph-name="fl" unicode="&#xfb02;" horiz-adv-x="520" 
d="M92 208l-3 200q-40 0 -57 -1q-6 16 -6 31.5t2 23.5h58q-1 13 -1 40q0 91 40.5 131.5t118.5 40.5q47 0 112 -14q31 21 73 21q18 0 28 -1q-15 -123 -15 -318v-106q0 -123 9 -198l37 -3q2 -16 2 -27.5t-3 -28.5q-35 1 -81 1t-80 -1q-3 15 -3 26.5t2 29.5l35 3q9 94 9 174v86
q0 202 -7 263q-91 35 -128 35t-56.5 -27t-19.5 -93q0 -22 1 -33q84 2 125 6q6 -13 6 -28.5t-4 -37.5q-38 2 -122 4v-94l1 -76q0 -103 10 -179l36 -3q2 -16 2 -27.5t-3 -28.5q-35 1 -81 1t-80 -1q-3 15 -3 26.5t2 29.5l34 3q10 96 10 150z" />
    <glyph glyph-name="acute.case" horiz-adv-x="428" 
d="M308 768q0 -12 -1 -18q-123 -37 -182 -46q-13 17 -15 39q21 11 50.5 26t44.5 23q44 24 73 46q30 -33 30 -70z" />
    <glyph glyph-name="grave.case" horiz-adv-x="424" 
d="M290 704q-63 13 -180 55q0 33 6.5 48.5t26.5 37.5q38 -32 65.5 -47.5t34 -19.5t31.5 -18t32 -18q-3 -21 -16 -38z" />
    <glyph glyph-name="dieresis.case" horiz-adv-x="473" 
d="M213 759q0 -55 -58 -55q-45 0 -45 46q0 56 58 56q45 0 45 -47zM363 759q0 -55 -58 -55q-45 0 -45 46q0 56 58 56q45 0 45 -47z" />
    <glyph glyph-name="circumflex.case" horiz-adv-x="488" 
d="M373 704q-68 21 -127 52q-87 -40 -135 -52q-12 18 -15 39q21 14 39 23t32.5 18t21.5 14t19 13q14 10 38 34q44 -42 143 -103q-3 -21 -16 -38z" />
    <glyph glyph-name="tilde.case" horiz-adv-x="508" 
d="M353 724q-30 -20 -55 -20t-56.5 16.5t-49.5 16.5q-36 0 -54 -32q-27 11 -32 32q15 26 45 46t56.5 20t58 -16.5t46.5 -16.5q36 0 54 32q27 -11 32 -32q-15 -26 -45 -46z" />
    <glyph glyph-name="ring.case" horiz-adv-x="386" 
d="M279 606q0 -79 -94 -79q-43 0 -61.5 19.5t-18.5 57.5q0 79 94 79q44 0 62 -18t18 -59zM197 646q-53 0 -53 -40q0 -23 10 -32.5t33 -9.5q53 0 53 43q0 21 -10 30t-33 9z" />
    <glyph glyph-name="caron.case" horiz-adv-x="488" 
d="M112 835q68 -21 127 -52q87 40 135 52q12 -18 15 -39q-33 -19 -57 -33q-55 -31 -93 -69q-44 42 -143 103q3 21 16 38z" />
    </font>
</defs>
</svg>
