<svg xmlns="http://www.w3.org/2000/svg" viewBox="0 0 299.997 299.997"><path fill="#333333" d="M149.996 0C67.156 0 0 67.158 0 149.997c0 82.837 67.157 150 149.996 150s150-67.163 150-150c0-82.84-67.16-149.997-150-149.997zm-4.702 100.16h111.864c.763 0 1.502.09 2.225.222L196.735 136.4 143.77 100.31c.505-.062 1-.153 1.524-.153zm-84.722 85.15v-15.558h49.92l-.608 5.047-.112.93v.936c0 3.02.5 5.92 1.398 8.644H60.572zm51.72-30.468h-68.58V139.28h70.466l-1.885 15.562zm5.28-43.624l-.966 7.965h-88.02V103.62h90.383c-.8 2.408-1.293 4.953-1.4 7.598zm131.803 77.634H137.513c-3.348 0-6.378-1.35-8.58-3.538v-.003c-.54-.536-1.027-1.127-1.46-1.757-.01-.016-.03-.03-.04-.047-.4-.594-.736-1.232-1.03-1.89-.03-.066-.074-.123-.105-.19-.265-.622-.45-1.284-.61-1.956-.028-.117-.082-.223-.105-.34-.163-.8-.25-1.62-.25-2.464l4.146-34.26.378-3.13 3.258-26.94c0-.77.093-1.514.23-2.242.017-.078.01-.163.027-.24.01.004.018.012.03.02.35-1.662 1.01-3.206 1.957-4.547v5.88l57.74 39.132c.08.053.164.082.245.13.083.05.17.092.257.14.456.232.923.42 1.4.544.053.013.1.02.15.03.525.125 1.057.2 1.583.2h.015c.527 0 1.058-.074 1.582-.2.052-.01.1-.017.15-.03.477-.124.944-.31 1.4-.545.087-.048.172-.09.258-.14.08-.048.163-.076.244-.13l68.792-39.717c.08.565.17 1.128.17 1.717l-7.78 64.33c-.007 6.73-5.46 12.182-12.19 12.182z"/></svg>